<svg width="4714" height="3596" viewBox="0 0 4714 3596" fill="none" xmlns="http://www.w3.org/2000/svg">
<g clip-path="url(#clip0_158_16)">
<path d="M4714 1798C4714 3099.74 3658.74 4155 2357 4155C1055.26 4155 0 3099.74 0 1798C0 496.265 1055.26 -559 2357 -559C3658.74 -559 4714 496.265 4714 1798ZM569.26 1798C569.26 2785.34 1369.66 3585.74 2357 3585.74C3344.34 3585.74 4144.74 2785.34 4144.74 1798C4144.74 810.658 3344.34 10.2599 2357 10.2599C1369.66 10.2599 569.26 810.658 569.26 1798Z" fill="url(#paint0_linear_158_16)"/>
<path d="M4155 1798C4155 2791.01 3350.01 3596 2357 3596C1363.99 3596 559 2791.01 559 1798C559 804.992 1363.99 0 2357 0C3350.01 0 4155 804.992 4155 1798ZM993.251 1798C993.251 2551.18 1603.82 3161.75 2357 3161.75C3110.18 3161.75 3720.75 2551.18 3720.75 1798C3720.75 1044.82 3110.18 434.251 2357 434.251C1603.82 434.251 993.251 1044.82 993.251 1798Z" fill="url(#paint1_linear_158_16)" fill-opacity="0.7"/>
<path d="M3727 1798C3727 2554.63 3113.63 3168 2357 3168C1600.37 3168 987 2554.63 987 1798C987 1041.37 1600.37 428 2357 428C3113.63 428 3727 1041.37 3727 1798ZM1317.88 1798C1317.88 2371.89 1783.11 2837.12 2357 2837.12C2930.89 2837.12 3396.12 2371.89 3396.12 1798C3396.12 1224.11 2930.89 758.881 2357 758.881C1783.11 758.881 1317.88 1224.11 1317.88 1798Z" fill="url(#paint2_linear_158_16)" fill-opacity="0.5"/>
<path d="M3402 1798C3402 2375.14 2934.14 2843 2357 2843C1779.86 2843 1312 2375.14 1312 1798C1312 1220.86 1779.86 753 2357 753C2934.14 753 3402 1220.86 3402 1798ZM1564.39 1798C1564.39 2235.75 1919.25 2590.61 2357 2590.61C2794.75 2590.61 3149.61 2235.75 3149.61 1798C3149.61 1360.25 2794.75 1005.39 2357 1005.39C1919.25 1005.39 1564.39 1360.25 1564.39 1798Z" fill="url(#paint3_linear_158_16)" fill-opacity="0.3"/>
</g>
<defs>
<linearGradient id="paint0_linear_158_16" x1="2357" y1="-12" x2="2357" y2="3607.5" gradientUnits="userSpaceOnUse">
<stop stop-color="#00509D" stop-opacity="0"/>
<stop offset="0.475" stop-color="#00509D"/>
<stop offset="1" stop-color="#00509D" stop-opacity="0"/>
</linearGradient>
<linearGradient id="paint1_linear_158_16" x1="2357" y1="0" x2="2357" y2="3596" gradientUnits="userSpaceOnUse">
<stop stop-color="#00509D" stop-opacity="0"/>
<stop offset="0.48" stop-color="#00509D"/>
<stop offset="1" stop-color="#001C37" stop-opacity="0"/>
</linearGradient>
<linearGradient id="paint2_linear_158_16" x1="2357" y1="2.00002" x2="2357" y2="3607.5" gradientUnits="userSpaceOnUse">
<stop stop-color="#00509D" stop-opacity="0"/>
<stop offset="0.49" stop-color="#00509D"/>
<stop offset="1" stop-color="#00509D" stop-opacity="0"/>
</linearGradient>
<linearGradient id="paint3_linear_158_16" x1="2321" y1="31.0001" x2="2321" y2="3615" gradientUnits="userSpaceOnUse">
<stop stop-color="#00509D" stop-opacity="0"/>
<stop offset="0.47" stop-color="#00509D"/>
<stop offset="1" stop-color="#00509D" stop-opacity="0"/>
</linearGradient>
<clipPath id="clip0_158_16">
<rect width="4714" height="3596" fill="white"/>
</clipPath>
</defs>
</svg>
