<svg width="274" height="220" viewBox="0 0 274 220" fill="none" xmlns="http://www.w3.org/2000/svg">
<g clip-path="url(#clip0_84_104)">
<rect x="-0.300293" y="-0.893555" width="274.577" height="220.894" rx="21" fill="#001B35"/>
<path d="M24.1165 37.2886H21.304L26.4248 22.7431H29.6776L34.8054 37.2886H31.9929L28.108 25.7261H27.9944L24.1165 37.2886ZM24.2089 31.5854H31.8793V33.7019H24.2089V31.5854ZM36.6076 41.3795V26.3795H39.1361V28.1835H39.2852C39.4178 27.9183 39.6048 27.6366 39.8463 27.3383C40.0878 27.0353 40.4145 26.7772 40.8264 26.5641C41.2383 26.3463 41.7639 26.2374 42.4031 26.2374C43.2459 26.2374 44.0058 26.4529 44.6829 26.8837C45.3647 27.3099 45.9045 27.942 46.3022 28.7801C46.7047 29.6134 46.9059 30.6361 46.9059 31.8482C46.9059 33.0461 46.7094 34.0641 46.3165 34.9022C45.9235 35.7403 45.3884 36.3795 44.7113 36.8198C44.0343 37.2602 43.2672 37.4803 42.4102 37.4803C41.7852 37.4803 41.2667 37.3762 40.8548 37.1678C40.4429 36.9595 40.1114 36.7086 39.8605 36.415C39.6143 36.1167 39.4225 35.835 39.2852 35.5698H39.1787V41.3795H36.6076ZM39.129 31.834C39.129 32.5395 39.2284 33.1574 39.4272 33.6877C39.6308 34.218 39.922 34.6323 40.3008 34.9306C40.6843 35.2242 41.1484 35.371 41.6929 35.371C42.2611 35.371 42.7369 35.2194 43.1204 34.9164C43.504 34.6086 43.7928 34.1896 43.9869 33.6593C44.1858 33.1243 44.2852 32.5158 44.2852 31.834C44.2852 31.1569 44.1881 30.5556 43.994 30.0301C43.7999 29.5045 43.5111 29.0926 43.1275 28.7943C42.744 28.496 42.2658 28.3468 41.6929 28.3468C41.1436 28.3468 40.6772 28.4912 40.2937 28.7801C39.9102 29.0689 39.619 29.4737 39.4201 29.9945C39.226 30.5154 39.129 31.1285 39.129 31.834ZM49.1076 41.3795V26.3795H51.6361V28.1835H51.7852C51.9178 27.9183 52.1048 27.6366 52.3463 27.3383C52.5878 27.0353 52.9145 26.7772 53.3264 26.5641C53.7383 26.3463 54.2639 26.2374 54.9031 26.2374C55.7459 26.2374 56.5058 26.4529 57.1829 26.8837C57.8647 27.3099 58.4045 27.942 58.8022 28.7801C59.2047 29.6134 59.4059 30.6361 59.4059 31.8482C59.4059 33.0461 59.2094 34.0641 58.8165 34.9022C58.4235 35.7403 57.8884 36.3795 57.2113 36.8198C56.5343 37.2602 55.7672 37.4803 54.9102 37.4803C54.2852 37.4803 53.7667 37.3762 53.3548 37.1678C52.9429 36.9595 52.6114 36.7086 52.3605 36.415C52.1143 36.1167 51.9225 35.835 51.7852 35.5698H51.6787V41.3795H49.1076ZM51.629 31.834C51.629 32.5395 51.7284 33.1574 51.9272 33.6877C52.1308 34.218 52.422 34.6323 52.8008 34.9306C53.1843 35.2242 53.6484 35.371 54.1929 35.371C54.7611 35.371 55.2369 35.2194 55.6204 34.9164C56.004 34.6086 56.2928 34.1896 56.4869 33.6593C56.6858 33.1243 56.7852 32.5158 56.7852 31.834C56.7852 31.1569 56.6881 30.5556 56.494 30.0301C56.2999 29.5045 56.0111 29.0926 55.6275 28.7943C55.244 28.496 54.7658 28.3468 54.1929 28.3468C53.6436 28.3468 53.1772 28.4912 52.7937 28.7801C52.4102 29.0689 52.119 29.4737 51.9201 29.9945C51.726 30.5154 51.629 31.1285 51.629 31.834ZM61.6076 37.2886V26.3795H64.1005V28.1977H64.2142C64.413 27.5679 64.754 27.0826 65.2369 26.7417C65.7246 26.3961 66.2809 26.2232 66.9059 26.2232C67.048 26.2232 67.2066 26.2303 67.3818 26.2445C67.5617 26.254 67.7109 26.2706 67.8292 26.2943V28.6593C67.7203 28.6214 67.5475 28.5883 67.3108 28.5599C67.0788 28.5267 66.8539 28.5102 66.6361 28.5102C66.1673 28.5102 65.7459 28.612 65.3718 28.8156C65.0025 29.0144 64.7113 29.2914 64.4983 29.6465C64.2852 30.0016 64.1787 30.4112 64.1787 30.8752V37.2886H61.6076ZM73.8466 37.5016C72.7813 37.5016 71.858 37.2673 71.0767 36.7985C70.2955 36.3298 69.6894 35.674 69.2586 34.8312C68.8324 33.9884 68.6194 33.0035 68.6194 31.8766C68.6194 30.7497 68.8324 29.7625 69.2586 28.915C69.6894 28.0675 70.2955 27.4093 71.0767 26.9406C71.858 26.4718 72.7813 26.2374 73.8466 26.2374C74.912 26.2374 75.8353 26.4718 76.6165 26.9406C77.3978 27.4093 78.0015 28.0675 78.4276 28.915C78.8585 29.7625 79.0739 30.7497 79.0739 31.8766C79.0739 33.0035 78.8585 33.9884 78.4276 34.8312C78.0015 35.674 77.3978 36.3298 76.6165 36.7985C75.8353 37.2673 74.912 37.5016 73.8466 37.5016ZM73.8608 35.442C74.4385 35.442 74.9214 35.2834 75.3097 34.9661C75.698 34.6442 75.9868 34.2133 76.1762 33.6735C76.3703 33.1337 76.4674 32.5324 76.4674 31.8695C76.4674 31.2019 76.3703 30.5982 76.1762 30.0585C75.9868 29.514 75.698 29.0807 75.3097 28.7587C74.9214 28.4368 74.4385 28.2758 73.8608 28.2758C73.269 28.2758 72.7766 28.4368 72.3836 28.7587C71.9953 29.0807 71.7041 29.514 71.51 30.0585C71.3206 30.5982 71.2259 31.2019 71.2259 31.8695C71.2259 32.5324 71.3206 33.1337 71.51 33.6735C71.7041 34.2133 71.9953 34.6442 72.3836 34.9661C72.7766 35.2834 73.269 35.442 73.8608 35.442ZM90.6293 26.3795L86.7444 37.2886H83.9035L80.0185 26.3795H82.76L85.2671 34.4832H85.3807L87.8949 26.3795H90.6293ZM96.8669 37.5016C95.7731 37.5016 94.8285 37.2744 94.0331 36.8198C93.2424 36.3605 92.6339 35.7119 92.2078 34.8738C91.7816 34.031 91.5686 33.039 91.5686 31.8979C91.5686 30.7758 91.7816 29.7909 92.2078 28.9434C92.6387 28.0911 93.24 27.4283 94.0118 26.9548C94.7835 26.4765 95.6903 26.2374 96.7319 26.2374C97.4043 26.2374 98.0388 26.3463 98.6353 26.5641C99.2367 26.7772 99.767 27.1086 100.226 27.5585C100.69 28.0083 101.055 28.5812 101.32 29.2772C101.585 29.9685 101.718 30.7924 101.718 31.7488V32.5372H92.776V30.8042H99.2532C99.2485 30.3118 99.142 29.8738 98.9336 29.4903C98.7253 29.102 98.4341 28.7966 98.0601 28.5741C97.6907 28.3515 97.2599 28.2403 96.7674 28.2403C96.2419 28.2403 95.7802 28.3681 95.3825 28.6238C94.9848 28.8747 94.6746 29.2062 94.4521 29.6181C94.2343 30.0253 94.123 30.4728 94.1183 30.9604V32.4732C94.1183 33.1077 94.2343 33.6522 94.4663 34.1068C94.6983 34.5566 95.0227 34.9022 95.4393 35.1437C95.856 35.3804 96.3437 35.4988 96.9024 35.4988C97.2764 35.4988 97.615 35.4467 97.918 35.3426C98.221 35.2336 98.4838 35.075 98.7064 34.8667C98.9289 34.6584 99.097 34.4003 99.2106 34.0926L101.611 34.3624C101.46 34.9969 101.171 35.5509 100.745 36.0244C100.323 36.4931 99.7835 36.8577 99.1254 37.1181C98.4673 37.3738 97.7144 37.5016 96.8669 37.5016ZM107.941 37.4803C107.084 37.4803 106.317 37.2602 105.64 36.8198C104.963 36.3795 104.428 35.7403 104.035 34.9022C103.642 34.0641 103.445 33.0461 103.445 31.8482C103.445 30.6361 103.644 29.6134 104.042 28.7801C104.444 27.942 104.987 27.3099 105.668 26.8837C106.35 26.4529 107.11 26.2374 107.948 26.2374C108.587 26.2374 109.113 26.3463 109.525 26.5641C109.937 26.7772 110.264 27.0353 110.505 27.3383C110.746 27.6366 110.934 27.9183 111.066 28.1835H111.173V22.7431H113.751V37.2886H111.222V35.5698H111.066C110.934 35.835 110.742 36.1167 110.491 36.415C110.24 36.7086 109.908 36.9595 109.496 37.1678C109.085 37.3762 108.566 37.4803 107.941 37.4803ZM108.658 35.371C109.203 35.371 109.667 35.2242 110.05 34.9306C110.434 34.6323 110.725 34.218 110.924 33.6877C111.123 33.1574 111.222 32.5395 111.222 31.834C111.222 31.1285 111.123 30.5154 110.924 29.9945C110.73 29.4737 110.441 29.0689 110.058 28.7801C109.679 28.4912 109.212 28.3468 108.658 28.3468C108.086 28.3468 107.607 28.496 107.224 28.7943C106.84 29.0926 106.551 29.5045 106.357 30.0301C106.163 30.5556 106.066 31.1569 106.066 31.834C106.066 32.5158 106.163 33.1243 106.357 33.6593C106.556 34.1896 106.847 34.6086 107.231 34.9164C107.619 35.2194 108.095 35.371 108.658 35.371Z" fill="white" fill-opacity="0.69"/>
<path d="M35.835 53.8983V82.9893H29.6844V59.7364H29.514L22.8521 63.9126V58.458L30.0538 53.8983H35.835ZM43.8996 82.9893L55.9593 59.1256V58.9268H41.911V53.8983H62.3229V58.9978L50.2491 82.9893H43.8996Z" fill="white" fill-opacity="0.81"/>
<path opacity="0.2" fill-rule="evenodd" clip-rule="evenodd" d="M7.18059 203.279C20.482 203.279 38.762 170.214 52.0633 170.214C65.3647 170.214 83.2047 137.024 96.5061 137.024C109.807 137.024 127.647 103.833 140.949 103.833C154.25 103.833 172.09 186.81 185.392 186.81C198.693 186.81 216.533 153.619 229.834 153.619C243.136 153.619 260.976 120.428 274.277 120.428V220H7.62062L-2.5 205.039L7.18059 203.279Z" fill="#66A3FF"/>
<g filter="url(#filter0_d_84_104)">
<path d="M7.40869 203.289C20.6815 203.289 38.4832 170.216 51.756 170.216C65.0289 170.216 82.8306 137.144 96.1034 137.144C109.376 137.144 127.178 104.072 140.451 104.072C153.724 104.072 171.525 186.752 184.798 186.752C198.071 186.752 215.873 153.68 229.145 153.68C242.418 153.68 260.22 120.608 273.493 120.608" stroke="#66A3FE" stroke-width="2" stroke-linejoin="round"/>
</g>
<g filter="url(#filter1_d_84_104)">
<circle cx="7.40847" cy="203.288" r="0.784446" fill="#66A3FE" stroke="#66A3FE" stroke-width="2"/>
<circle cx="51.7556" cy="170.216" r="0.784446" fill="#66A3FE" stroke="#66A3FE" stroke-width="2"/>
<circle cx="96.1033" cy="137.144" r="0.784446" fill="#66A3FE" stroke="#66A3FE" stroke-width="2"/>
<circle cx="140.45" cy="104.072" r="0.784446" fill="#66A3FE" stroke="#66A3FE" stroke-width="2"/>
<circle cx="184.799" cy="186.753" r="0.784446" fill="#66A3FE" stroke="#66A3FE" stroke-width="2"/>
<circle cx="229.146" cy="153.681" r="0.784446" fill="#66A3FE" stroke="#66A3FE" stroke-width="2"/>
<circle cx="273.493" cy="120.608" r="0.784446" fill="#66A3FE" stroke="#66A3FE" stroke-width="2"/>
</g>
</g>
<defs>
<filter id="filter0_d_84_104" x="3.40869" y="103.072" width="274.084" height="109.217" filterUnits="userSpaceOnUse" color-interpolation-filters="sRGB">
<feFlood flood-opacity="0" result="BackgroundImageFix"/>
<feColorMatrix in="SourceAlpha" type="matrix" values="0 0 0 0 0 0 0 0 0 0 0 0 0 0 0 0 0 0 127 0" result="hardAlpha"/>
<feOffset dy="4"/>
<feGaussianBlur stdDeviation="2"/>
<feComposite in2="hardAlpha" operator="out"/>
<feColorMatrix type="matrix" values="0 0 0 0 0 0 0 0 0 0 0 0 0 0 0 0 0 0 0.25 0"/>
<feBlend mode="normal" in2="BackgroundImageFix" result="effect1_dropShadow_84_104"/>
<feBlend mode="normal" in="SourceGraphic" in2="effect1_dropShadow_84_104" result="shape"/>
</filter>
<filter id="filter1_d_84_104" x="2.62402" y="99.2876" width="277.654" height="110.785" filterUnits="userSpaceOnUse" color-interpolation-filters="sRGB">
<feFlood flood-opacity="0" result="BackgroundImageFix"/>
<feColorMatrix in="SourceAlpha" type="matrix" values="0 0 0 0 0 0 0 0 0 0 0 0 0 0 0 0 0 0 127 0" result="hardAlpha"/>
<feOffset dx="1" dy="1"/>
<feGaussianBlur stdDeviation="2"/>
<feComposite in2="hardAlpha" operator="out"/>
<feColorMatrix type="matrix" values="0 0 0 0 0 0 0 0 0 0 0 0 0 0 0 0 0 0 0.37 0"/>
<feBlend mode="normal" in2="BackgroundImageFix" result="effect1_dropShadow_84_104"/>
<feBlend mode="normal" in="SourceGraphic" in2="effect1_dropShadow_84_104" result="shape"/>
</filter>
<clipPath id="clip0_84_104">
<rect width="274" height="220" rx="21" fill="white"/>
</clipPath>
</defs>
</svg>
