<svg width="342" height="342" viewBox="0 0 342 342" fill="none" xmlns="http://www.w3.org/2000/svg">
<rect width="342" height="342" rx="25" fill="#FAFAFA"/>
<path d="M22.7549 29.8904V27.6816H34.36V29.8904H29.8643V42.2271H27.2507V29.8904H22.7549ZM39.6601 42.4401C38.5948 42.4401 37.6715 42.2057 36.8902 41.737C36.109 41.2682 35.5029 40.6125 35.072 39.7697C34.6459 38.9269 34.4328 37.942 34.4328 36.8151C34.4328 35.6882 34.6459 34.701 35.072 33.8535C35.5029 33.0059 36.109 32.3478 36.8902 31.879C37.6715 31.4103 38.5948 31.1759 39.6601 31.1759C40.7255 31.1759 41.6487 31.4103 42.43 31.879C43.2112 32.3478 43.8149 33.0059 44.2411 33.8535C44.6719 34.701 44.8874 35.6882 44.8874 36.8151C44.8874 37.942 44.6719 38.9269 44.2411 39.7697C43.8149 40.6125 43.2112 41.2682 42.43 41.737C41.6487 42.2057 40.7255 42.4401 39.6601 42.4401ZM39.6743 40.3805C40.252 40.3805 40.7349 40.2218 41.1232 39.9046C41.5114 39.5826 41.8003 39.1518 41.9897 38.612C42.1838 38.0722 42.2809 37.4709 42.2809 36.808C42.2809 36.1404 42.1838 35.5367 41.9897 34.9969C41.8003 34.4524 41.5114 34.0192 41.1232 33.6972C40.7349 33.3753 40.252 33.2143 39.6743 33.2143C39.0825 33.2143 38.59 33.3753 38.197 33.6972C37.8088 34.0192 37.5176 34.4524 37.3235 34.9969C37.1341 35.5367 37.0394 36.1404 37.0394 36.808C37.0394 37.4709 37.1341 38.0722 37.3235 38.612C37.5176 39.1518 37.8088 39.5826 38.197 39.9046C38.59 40.2218 39.0825 40.3805 39.6743 40.3805ZM52.517 31.318V33.3066H46.2457V31.318H52.517ZM47.794 28.7043H50.365V38.9458C50.365 39.2914 50.4171 39.5566 50.5213 39.7413C50.6302 39.9212 50.7722 40.0443 50.9474 40.1106C51.1226 40.1769 51.3167 40.21 51.5298 40.21C51.6908 40.21 51.8376 40.1982 51.9701 40.1745C52.1074 40.1508 52.2116 40.1295 52.2826 40.1106L52.7159 42.1205C52.5786 42.1679 52.3821 42.2199 52.1264 42.2768C51.8754 42.3336 51.5677 42.3667 51.2031 42.3762C50.5591 42.3951 49.9791 42.2981 49.463 42.085C48.9469 41.8672 48.5374 41.531 48.2343 41.0765C47.936 40.6219 47.7893 40.0538 47.794 39.3719V28.7043ZM57.8064 42.4472C57.1151 42.4472 56.4925 42.3241 55.9385 42.0779C55.3893 41.827 54.9537 41.4576 54.6317 40.9699C54.3145 40.4823 54.1559 39.8809 54.1559 39.166C54.1559 38.5504 54.2695 38.0414 54.4968 37.639C54.724 37.2365 55.0342 36.9146 55.4272 36.6731C55.8201 36.4316 56.2629 36.2493 56.7553 36.1262C57.2524 35.9984 57.7662 35.906 58.2965 35.8492C58.9357 35.7829 59.4541 35.7237 59.8519 35.6717C60.2496 35.6148 60.5384 35.5296 60.7184 35.416C60.903 35.2976 60.9953 35.1153 60.9953 34.8691V34.8265C60.9953 34.2914 60.8367 33.8771 60.5195 33.5836C60.2023 33.29 59.7453 33.1432 59.1487 33.1432C58.519 33.1432 58.0195 33.2806 57.6502 33.5552C57.2856 33.8298 57.0394 34.1541 56.9115 34.5282L54.511 34.1873C54.7004 33.5244 55.0129 32.9704 55.4485 32.5253C55.8841 32.0755 56.4167 31.7394 57.0465 31.5168C57.6762 31.2896 58.3722 31.1759 59.1345 31.1759C59.6601 31.1759 60.1833 31.2375 60.7041 31.3606C61.225 31.4837 61.7008 31.6873 62.1317 31.9714C62.5626 32.2507 62.9082 32.6319 63.1686 33.1148C63.4338 33.5978 63.5664 34.2015 63.5664 34.9259V42.2271H61.0948V40.7285H61.0095C60.8533 41.0315 60.6331 41.3156 60.349 41.5807C60.0697 41.8412 59.7169 42.0519 59.2908 42.2128C58.8694 42.3691 58.3746 42.4472 57.8064 42.4472ZM58.474 40.558C58.9901 40.558 59.4376 40.4562 59.8164 40.2526C60.1951 40.0443 60.4863 39.7697 60.6899 39.4288C60.8983 39.0878 61.0024 38.7162 61.0024 38.3137V37.0282C60.9219 37.0945 60.7846 37.156 60.5905 37.2128C60.4011 37.2697 60.188 37.3194 59.9513 37.362C59.7146 37.4046 59.4802 37.4425 59.2482 37.4756C59.0162 37.5088 58.8149 37.5372 58.6445 37.5609C58.261 37.6129 57.9177 37.6982 57.6147 37.8165C57.3116 37.9349 57.0725 38.1006 56.8973 38.3137C56.7221 38.522 56.6345 38.7919 56.6345 39.1234C56.6345 39.5968 56.8074 39.9543 57.153 40.1958C57.4987 40.4373 57.939 40.558 58.474 40.558ZM68.7226 27.6816V42.2271H66.1516V27.6816H68.7226ZM83.6072 46.318V40.5083H83.5007C83.3681 40.7735 83.1763 41.0552 82.9254 41.3535C82.6744 41.647 82.343 41.898 81.9311 42.1063C81.5191 42.3146 81.0007 42.4188 80.3757 42.4188C79.5187 42.4188 78.7516 42.1986 78.0745 41.7583C77.3974 41.318 76.8624 40.6788 76.4694 39.8407C76.0764 39.0026 75.8799 37.9846 75.8799 36.7867C75.8799 35.5746 76.0788 34.5519 76.4765 33.7185C76.879 32.8805 77.4211 32.2484 78.1029 31.8222C78.7848 31.3913 79.5447 31.1759 80.3828 31.1759C81.022 31.1759 81.5475 31.2848 81.9595 31.5026C82.3714 31.7157 82.6981 31.9737 82.9396 32.2768C83.1811 32.5751 83.3681 32.8568 83.5007 33.1219H83.6569V31.318H86.1853V46.318H83.6072ZM81.093 40.3094C81.6375 40.3094 82.1015 40.1627 82.485 39.8691C82.8686 39.5708 83.1598 39.1565 83.3586 38.6262C83.5575 38.0959 83.6569 37.478 83.6569 36.7725C83.6569 36.067 83.5575 35.4538 83.3586 34.933C83.1645 34.4122 82.8757 34.0074 82.4921 33.7185C82.1134 33.4297 81.647 33.2853 81.093 33.2853C80.5201 33.2853 80.0419 33.4344 79.6583 33.7327C79.2748 34.031 78.986 34.443 78.7919 34.9685C78.5977 35.4941 78.5007 36.0954 78.5007 36.7725C78.5007 37.4543 78.5977 38.0628 78.7919 38.5978C78.9907 39.1281 79.2819 39.5471 79.6654 39.8549C80.0537 40.1579 80.5295 40.3094 81.093 40.3094ZM95.7805 37.639V31.318H98.3515V42.2271H95.8586V40.2881H95.745C95.4988 40.8989 95.0939 41.3985 94.5305 41.7867C93.9718 42.175 93.2829 42.3691 92.4637 42.3691C91.7488 42.3691 91.1167 42.2105 90.5674 41.8932C90.0229 41.5713 89.5968 41.1049 89.289 40.4941C88.9813 39.8786 88.8274 39.1352 88.8274 38.264V31.318H91.3984V37.8663C91.3984 38.5575 91.5878 39.1068 91.9666 39.514C92.3454 39.9212 92.8425 40.1248 93.4581 40.1248C93.8368 40.1248 94.2038 40.0324 94.5589 39.8478C94.914 39.6631 95.2052 39.3885 95.4325 39.0239C95.6645 38.6546 95.7805 38.193 95.7805 37.639ZM105.825 42.4401C104.731 42.4401 103.787 42.2128 102.991 41.7583C102.2 41.299 101.592 40.6503 101.166 39.8123C100.74 38.9695 100.527 37.9775 100.527 36.8364C100.527 35.7143 100.74 34.7294 101.166 33.8819C101.597 33.0296 102.198 32.3667 102.97 31.8932C103.742 31.415 104.648 31.1759 105.69 31.1759C106.362 31.1759 106.997 31.2848 107.593 31.5026C108.195 31.7157 108.725 32.0471 109.184 32.4969C109.648 32.9467 110.013 33.5197 110.278 34.2157C110.543 34.907 110.676 35.7308 110.676 36.6873V37.4756H101.734V35.7427H108.211C108.207 35.2503 108.1 34.8123 107.892 34.4288C107.683 34.0405 107.392 33.7351 107.018 33.5126C106.649 33.29 106.218 33.1788 105.725 33.1788C105.2 33.1788 104.738 33.3066 104.341 33.5623C103.943 33.8132 103.633 34.1447 103.41 34.5566C103.192 34.9638 103.081 35.4112 103.076 35.8989V37.4117C103.076 38.0462 103.192 38.5907 103.424 39.0452C103.656 39.495 103.981 39.8407 104.397 40.0822C104.814 40.3189 105.302 40.4373 105.86 40.4373C106.234 40.4373 106.573 40.3852 106.876 40.281C107.179 40.1721 107.442 40.0135 107.664 39.8052C107.887 39.5968 108.055 39.3388 108.169 39.031L110.569 39.3009C110.418 39.9354 110.129 40.4894 109.703 40.9628C109.281 41.4316 108.742 41.7962 108.083 42.0566C107.425 42.3123 106.672 42.4401 105.825 42.4401ZM112.851 42.2271V31.318H115.344V33.1361H115.457C115.656 32.5064 115.997 32.0211 116.48 31.6802C116.968 31.3345 117.524 31.1617 118.149 31.1617C118.291 31.1617 118.45 31.1688 118.625 31.183C118.805 31.1925 118.954 31.2091 119.072 31.2327V33.5978C118.963 33.5599 118.791 33.5268 118.554 33.4984C118.322 33.4652 118.097 33.4486 117.879 33.4486C117.41 33.4486 116.989 33.5504 116.615 33.754C116.246 33.9529 115.955 34.2299 115.741 34.585C115.528 34.9401 115.422 35.3497 115.422 35.8137V42.2271H112.851ZM122.711 46.318C122.36 46.318 122.036 46.2896 121.738 46.2327C121.444 46.1806 121.21 46.1191 121.034 46.0481L121.631 44.0452C122.005 44.1541 122.339 44.2062 122.632 44.2015C122.926 44.1967 123.184 44.1044 123.407 43.9245C123.634 43.7493 123.826 43.4557 123.982 43.0438L124.202 42.4543L120.246 31.318H122.973L125.488 39.5566H125.601L128.122 31.318H130.857L126.489 43.5481C126.285 44.1257 126.015 44.6205 125.679 45.0324C125.343 45.4491 124.931 45.7664 124.443 45.9842C123.961 46.2067 123.383 46.318 122.711 46.318ZM28.039 66.4401C26.9737 66.4401 26.0504 66.2057 25.2691 65.737C24.4879 65.2682 23.8818 64.6125 23.4509 63.7697C23.0248 62.9269 22.8117 61.942 22.8117 60.8151C22.8117 59.6882 23.0248 58.701 23.4509 57.8535C23.8818 57.0059 24.4879 56.3478 25.2691 55.879C26.0504 55.4103 26.9737 55.1759 28.039 55.1759C29.1044 55.1759 30.0277 55.4103 30.8089 55.879C31.5902 56.3478 32.1938 57.0059 32.62 57.8535C33.0509 58.701 33.2663 59.6882 33.2663 60.8151C33.2663 61.942 33.0509 62.9269 32.62 63.7697C32.1938 64.6125 31.5902 65.2682 30.8089 65.737C30.0277 66.2057 29.1044 66.4401 28.039 66.4401ZM28.0532 64.3805C28.6309 64.3805 29.1138 64.2218 29.5021 63.9046C29.8903 63.5826 30.1792 63.1518 30.3686 62.612C30.5627 62.0722 30.6598 61.4709 30.6598 60.808C30.6598 60.1404 30.5627 59.5367 30.3686 58.9969C30.1792 58.4524 29.8903 58.0192 29.5021 57.6972C29.1138 57.3753 28.6309 57.2143 28.0532 57.2143C27.4614 57.2143 26.9689 57.3753 26.576 57.6972C26.1877 58.0192 25.8965 58.4524 25.7024 58.9969C25.513 59.5367 25.4183 60.1404 25.4183 60.808C25.4183 61.4709 25.513 62.0722 25.7024 62.612C25.8965 63.1518 26.1877 63.5826 26.576 63.9046C26.9689 64.2218 27.4614 64.3805 28.0532 64.3805ZM44.8217 55.318L40.9367 66.2271H38.0958L34.2109 55.318H36.9524L39.4595 63.4217H39.5731L42.0873 55.318H44.8217ZM51.0593 66.4401C49.9655 66.4401 49.0209 66.2128 48.2255 65.7583C47.4347 65.299 46.8263 64.6503 46.4002 63.8123C45.974 62.9695 45.761 61.9775 45.761 60.8364C45.761 59.7143 45.974 58.7294 46.4002 57.8819C46.831 57.0296 47.4324 56.3667 48.2041 55.8932C48.9759 55.415 49.8826 55.1759 50.9243 55.1759C51.5967 55.1759 52.2311 55.2848 52.8277 55.5026C53.4291 55.7157 53.9594 56.0471 54.4186 56.4969C54.8827 56.9467 55.2472 57.5197 55.5124 58.2157C55.7775 58.907 55.9101 59.7308 55.9101 60.6873V61.4756H46.9684V59.7427H53.4456C53.4409 59.2503 53.3344 58.8123 53.126 58.4288C52.9177 58.0405 52.6265 57.7351 52.2524 57.5126C51.8831 57.29 51.4523 57.1788 50.9598 57.1788C50.4343 57.1788 49.9726 57.3066 49.5749 57.5623C49.1772 57.8132 48.867 58.1447 48.6445 58.5566C48.4267 58.9638 48.3154 59.4112 48.3107 59.8989V61.4117C48.3107 62.0462 48.4267 62.5907 48.6587 63.0452C48.8907 63.495 49.215 63.8407 49.6317 64.0822C50.0484 64.3189 50.5361 64.4373 51.0948 64.4373C51.4688 64.4373 51.8074 64.3852 52.1104 64.281C52.4134 64.1721 52.6762 64.0135 52.8987 63.8052C53.1213 63.5968 53.2894 63.3388 53.403 63.031L55.8036 63.3009C55.6521 63.9354 55.3632 64.4894 54.9371 64.9628C54.5157 65.4316 53.9759 65.7962 53.3178 66.0566C52.6596 66.3123 51.9068 66.4401 51.0593 66.4401ZM58.0852 66.2271V55.318H60.5781V57.1361H60.6917C60.8906 56.5064 61.2315 56.0211 61.7144 55.6802C62.2021 55.3345 62.7585 55.1617 63.3835 55.1617C63.5255 55.1617 63.6841 55.1688 63.8593 55.183C64.0393 55.1925 64.1884 55.2091 64.3068 55.2327V57.5978C64.1979 57.5599 64.0251 57.5268 63.7883 57.4984C63.5563 57.4652 63.3314 57.4486 63.1136 57.4486C62.6448 57.4486 62.2234 57.5504 61.8494 57.754C61.4801 57.9529 61.1889 58.2299 60.9758 58.585C60.7627 58.9401 60.6562 59.3497 60.6562 59.8137V66.2271H58.0852ZM76.0912 55.318L72.2063 66.2271H69.3654L65.4804 55.318H68.2219L70.729 63.4217H70.8426L73.3568 55.318H76.0912ZM77.8703 66.2271V55.318H80.4414V66.2271H77.8703ZM79.163 53.7697C78.7558 53.7697 78.4054 53.6347 78.1118 53.3648C77.8183 53.0902 77.6715 52.7611 77.6715 52.3776C77.6715 51.9894 77.8183 51.6603 78.1118 51.3904C78.4054 51.1158 78.7558 50.9785 79.163 50.9785C79.5749 50.9785 79.9253 51.1158 80.2141 51.3904C80.5076 51.6603 80.6544 51.9894 80.6544 52.3776C80.6544 52.7611 80.5076 53.0902 80.2141 53.3648C79.9253 53.6347 79.5749 53.7697 79.163 53.7697ZM87.9147 66.4401C86.821 66.4401 85.8764 66.2128 85.0809 65.7583C84.2902 65.299 83.6818 64.6503 83.2556 63.8123C82.8295 62.9695 82.6164 61.9775 82.6164 60.8364C82.6164 59.7143 82.8295 58.7294 83.2556 57.8819C83.6865 57.0296 84.2878 56.3667 85.0596 55.8932C85.8314 55.415 86.7381 55.1759 87.7798 55.1759C88.4521 55.1759 89.0866 55.2848 89.6832 55.5026C90.2845 55.7157 90.8148 56.0471 91.2741 56.4969C91.7381 56.9467 92.1027 57.5197 92.3679 58.2157C92.633 58.907 92.7656 59.7308 92.7656 60.6873V61.4756H83.8238V59.7427H90.3011C90.2964 59.2503 90.1898 58.8123 89.9815 58.4288C89.7732 58.0405 89.482 57.7351 89.1079 57.5126C88.7386 57.29 88.3077 57.1788 87.8153 57.1788C87.2897 57.1788 86.8281 57.3066 86.4304 57.5623C86.0326 57.8132 85.7225 58.1447 85.5 58.5566C85.2822 58.9638 85.1709 59.4112 85.1661 59.8989V61.4117C85.1661 62.0462 85.2822 62.5907 85.5142 63.0452C85.7462 63.495 86.0705 63.8407 86.4872 64.0822C86.9038 64.3189 87.3915 64.4373 87.9502 64.4373C88.3243 64.4373 88.6628 64.3852 88.9659 64.281C89.2689 64.1721 89.5317 64.0135 89.7542 63.8052C89.9768 63.5968 90.1448 63.3388 90.2585 63.031L92.659 63.3009C92.5075 63.9354 92.2187 64.4894 91.7926 64.9628C91.3712 65.4316 90.8314 65.7962 90.1733 66.0566C89.5151 66.3123 88.7623 66.4401 87.9147 66.4401ZM97.1335 66.2271L94.0511 55.318H96.6718L98.5894 62.9884H98.6889L100.649 55.318H103.241L105.202 62.9458H105.308L107.197 55.318H109.825L106.736 66.2271H104.058L102.013 58.8549H101.864L99.8181 66.2271H97.1335Z" fill="black" fill-opacity="0.69"/>
<g filter="url(#filter0_d_84_8)">
<path d="M225.166 255.698C171.449 255.698 127.903 212.151 127.903 158.434C127.903 104.717 171.449 61.1709 225.166 61.1709C278.883 61.1709 322.429 104.717 322.429 158.434C322.429 212.151 278.883 255.698 225.166 255.698ZM225.166 119.297C203.551 119.297 186.029 136.819 186.029 158.434C186.029 180.049 203.551 197.572 225.166 197.572C246.781 197.572 264.303 180.049 264.303 158.434C264.303 136.819 246.781 119.297 225.166 119.297Z" fill="#003366"/>
<path d="M225.166 255.698C240.876 255.698 256.352 251.892 270.27 244.607C284.189 237.322 296.136 226.773 305.089 213.864C314.042 200.955 319.735 186.07 321.68 170.481C323.626 154.892 321.767 139.064 316.262 124.35L261.821 144.719C264.037 150.64 264.785 157.009 264.002 163.282C263.219 169.554 260.928 175.544 257.326 180.739C253.723 185.933 248.916 190.177 243.315 193.109C237.715 196.04 231.487 197.572 225.166 197.572L225.166 255.698Z" fill="#00509E"/>
<path d="M225.166 255.698C244.404 255.698 263.21 249.992 279.205 239.304C295.201 228.615 307.667 213.423 315.028 195.649L261.325 173.409C258.363 180.561 253.347 186.674 246.911 190.975C240.474 195.276 232.907 197.572 225.166 197.572L225.166 255.698Z" fill="#007ACC"/>
<path d="M225.166 255.698C240.384 255.698 255.39 252.127 268.977 245.272L242.795 193.376C237.328 196.135 231.289 197.572 225.166 197.572L225.166 255.698Z" fill="#66A3FF"/>
</g>
<rect x="22.9277" y="224.529" width="28.066" height="13.5491" rx="6.77456" fill="#003366"/>
<path d="M64.6823 233.682C64.3456 233.68 64.0207 233.624 63.7075 233.513C63.3964 233.402 63.1173 233.222 62.8701 232.973C62.623 232.723 62.4269 232.393 62.282 231.982C62.1393 231.571 62.0679 231.066 62.0679 230.467C62.07 229.917 62.1329 229.426 62.2565 228.994C62.3822 228.559 62.5612 228.19 62.7934 227.888C63.0278 227.585 63.308 227.355 63.634 227.198C63.96 227.038 64.3254 226.958 64.7302 226.958C65.167 226.958 65.5526 227.043 65.8872 227.214C66.2217 227.382 66.4901 227.611 66.6926 227.901C66.8971 228.19 67.0207 228.515 67.0633 228.875H65.6986C65.6453 228.647 65.5335 228.468 65.363 228.339C65.1926 228.209 64.9816 228.144 64.7302 228.144C64.3041 228.144 63.9802 228.329 63.7586 228.7C63.5392 229.07 63.4273 229.574 63.423 230.211H63.4678C63.5658 230.017 63.6979 229.852 63.8641 229.716C64.0324 229.578 64.2231 229.472 64.4362 229.4C64.6514 229.325 64.8783 229.288 65.1169 229.288C65.5047 229.288 65.8499 229.379 66.1524 229.563C66.455 229.744 66.6936 229.993 66.8683 230.31C67.0431 230.628 67.1304 230.991 67.1304 231.4C67.1304 231.843 67.0271 232.238 66.8204 232.583C66.6159 232.928 66.3293 233.199 65.9607 233.395C65.5942 233.589 65.1681 233.684 64.6823 233.682ZM64.6759 232.596C64.8889 232.596 65.0796 232.544 65.248 232.442C65.4163 232.34 65.5484 232.201 65.6443 232.027C65.7401 231.852 65.7881 231.656 65.7881 231.439C65.7881 231.221 65.7401 231.026 65.6443 230.854C65.5505 230.681 65.4205 230.544 65.2544 230.441C65.0882 230.339 64.8985 230.288 64.6855 230.288C64.5257 230.288 64.3776 230.318 64.2412 230.378C64.107 230.437 63.9887 230.52 63.8865 230.627C63.7863 230.733 63.7075 230.857 63.6499 230.998C63.5924 231.136 63.5637 231.284 63.5637 231.442C63.5637 231.653 63.6116 231.846 63.7075 232.02C63.8055 232.195 63.9376 232.335 64.1038 232.439C64.2721 232.543 64.4628 232.596 64.6759 232.596ZM70.678 233.737C70.1283 233.734 69.6553 233.599 69.259 233.331C68.8648 233.062 68.5612 232.673 68.3481 232.164C68.1372 231.655 68.0328 231.042 68.0349 230.326C68.0349 229.613 68.1404 229.004 68.3513 228.502C68.5644 227.999 68.868 227.616 69.2622 227.354C69.6585 227.09 70.1304 226.958 70.678 226.958C71.2256 226.958 71.6965 227.09 72.0906 227.354C72.4869 227.618 72.7916 228.002 73.0047 228.505C73.2178 229.005 73.3232 229.613 73.3211 230.326C73.3211 231.044 73.2146 231.658 73.0015 232.167C72.7906 232.677 72.488 233.065 72.0938 233.334C71.6997 233.602 71.2277 233.737 70.678 233.737ZM70.678 232.589C71.053 232.589 71.3524 232.401 71.5761 232.024C71.7998 231.646 71.9106 231.081 71.9085 230.326C71.9085 229.83 71.8573 229.417 71.7551 229.086C71.6549 228.756 71.5122 228.508 71.3268 228.342C71.1436 228.176 70.9273 228.092 70.678 228.092C70.3051 228.092 70.0068 228.279 69.7831 228.652C69.5594 229.025 69.4465 229.583 69.4443 230.326C69.4443 230.829 69.4944 231.249 69.5945 231.586C69.6968 231.92 69.8406 232.172 70.026 232.34C70.2114 232.506 70.4287 232.589 70.678 232.589ZM77.8906 232.366V232.02C77.8906 231.758 77.946 231.517 78.0568 231.298C78.1697 231.076 78.3327 230.9 78.5458 230.767C78.761 230.633 79.0231 230.566 79.332 230.566C79.6452 230.566 79.9084 230.632 80.1214 230.764C80.3366 230.896 80.4986 231.073 80.6072 231.295C80.718 231.514 80.7734 231.756 80.7734 232.02V232.366C80.7734 232.628 80.718 232.869 80.6072 233.091C80.4964 233.31 80.3335 233.486 80.1183 233.618C79.9031 233.753 79.641 233.82 79.332 233.82C79.0188 233.82 78.7557 233.753 78.5426 233.618C78.3295 233.486 78.1676 233.31 78.0568 233.091C77.946 232.869 77.8906 232.628 77.8906 232.366ZM78.8207 232.02V232.366C78.8207 232.517 78.8569 232.66 78.9293 232.794C79.0039 232.928 79.1381 232.995 79.332 232.995C79.5259 232.995 79.658 232.929 79.7283 232.797C79.8008 232.665 79.837 232.521 79.837 232.366V232.02C79.837 231.865 79.8029 231.72 79.7347 231.586C79.6665 231.451 79.5323 231.384 79.332 231.384C79.1403 231.384 79.0071 231.451 78.9325 231.586C78.858 231.72 78.8207 231.865 78.8207 232.02ZM74.5316 228.62V228.275C74.5316 228.01 74.5881 227.769 74.701 227.549C74.8139 227.328 74.9769 227.151 75.19 227.019C75.4052 226.886 75.6651 226.82 75.9698 226.82C76.2852 226.82 76.5494 226.886 76.7624 227.019C76.9755 227.151 77.1374 227.328 77.2482 227.549C77.359 227.769 77.4144 228.01 77.4144 228.275V228.62C77.4144 228.884 77.358 229.126 77.245 229.345C77.1342 229.565 76.9712 229.741 76.756 229.873C76.543 230.003 76.2809 230.068 75.9698 230.068C75.6587 230.068 75.3956 230.002 75.1804 229.869C74.9673 229.735 74.8054 229.559 74.6946 229.342C74.5859 229.123 74.5316 228.882 74.5316 228.62ZM75.468 228.275V228.62C75.468 228.775 75.5043 228.919 75.5767 229.051C75.6513 229.183 75.7823 229.249 75.9698 229.249C76.1658 229.249 76.299 229.183 76.3693 229.051C76.4418 228.919 76.478 228.775 76.478 228.62V228.275C76.478 228.119 76.4439 227.974 76.3757 227.84C76.3075 227.706 76.1722 227.639 75.9698 227.639C75.7802 227.639 75.6491 227.707 75.5767 227.843C75.5043 227.979 75.468 228.123 75.468 228.275ZM74.9535 233.593L79.4535 227.047H80.2908L75.7908 233.593H74.9535Z" fill="black" fill-opacity="0.69"/>
<path d="M85.104 233.593H84.2731L86.6765 227.047H87.4947L89.8981 233.593H89.0671L87.1112 228.083H87.06L85.104 233.593ZM85.4109 231.036H88.7603V231.739H85.4109V231.036ZM90.8153 235.434V228.684H91.544V229.464H91.6335C91.6889 229.378 91.7656 229.27 91.8636 229.138C91.9638 229.003 92.1065 228.884 92.2919 228.78C92.4794 228.673 92.733 228.62 93.0526 228.62C93.4659 228.62 93.8303 228.723 94.1456 228.93C94.4609 229.136 94.707 229.429 94.8839 229.809C95.0607 230.188 95.1491 230.635 95.1491 231.151C95.1491 231.671 95.0607 232.122 94.8839 232.503C94.707 232.882 94.462 233.176 94.1488 233.385C93.8356 233.592 93.4744 233.695 93.0653 233.695C92.75 233.695 92.4975 233.643 92.3079 233.538C92.1183 233.432 91.9723 233.312 91.87 233.177C91.7678 233.041 91.6889 232.928 91.6335 232.839H91.5696V235.434H90.8153ZM91.5568 231.138C91.5568 231.509 91.6112 231.836 91.7198 232.119C91.8285 232.401 91.9872 232.621 92.196 232.781C92.4048 232.939 92.6605 233.017 92.9631 233.017C93.2784 233.017 93.5415 232.934 93.7525 232.768C93.9656 232.6 94.1254 232.374 94.2319 232.091C94.3406 231.805 94.3949 231.488 94.3949 231.138C94.3949 230.793 94.3416 230.482 94.2351 230.205C94.1307 229.926 93.9719 229.705 93.7589 229.543C93.5479 229.379 93.2827 229.297 92.9631 229.297C92.6563 229.297 92.3984 229.375 92.1896 229.531C91.9808 229.684 91.8232 229.899 91.7166 230.176C91.6101 230.451 91.5568 230.772 91.5568 231.138ZM96.2997 235.434V228.684H97.0284V229.464H97.1179C97.1733 229.378 97.25 229.27 97.348 229.138C97.4482 229.003 97.5909 228.884 97.7763 228.78C97.9638 228.673 98.2173 228.62 98.5369 228.62C98.9503 228.62 99.3146 228.723 99.63 228.93C99.9453 229.136 100.191 229.429 100.368 229.809C100.545 230.188 100.634 230.635 100.634 231.151C100.634 231.671 100.545 232.122 100.368 232.503C100.191 232.882 99.9464 233.176 99.6332 233.385C99.32 233.592 98.9588 233.695 98.5497 233.695C98.2344 233.695 97.9819 233.643 97.7923 233.538C97.6026 233.432 97.4567 233.312 97.3544 233.177C97.2521 233.041 97.1733 232.928 97.1179 232.839H97.054V235.434H96.2997ZM97.0412 231.138C97.0412 231.509 97.0955 231.836 97.2042 232.119C97.3129 232.401 97.4716 232.621 97.6804 232.781C97.8892 232.939 98.1449 233.017 98.4474 233.017C98.7628 233.017 99.0259 232.934 99.2369 232.768C99.4499 232.6 99.6097 232.374 99.7163 232.091C99.8249 231.805 99.8793 231.488 99.8793 231.138C99.8793 230.793 99.826 230.482 99.7195 230.205C99.6151 229.926 99.4563 229.705 99.2433 229.543C99.0323 229.379 98.767 229.297 98.4474 229.297C98.1406 229.297 97.8828 229.375 97.674 229.531C97.4652 229.684 97.3075 229.899 97.201 230.176C97.0945 230.451 97.0412 230.772 97.0412 231.138ZM101.784 233.593V228.684H102.513V229.425H102.564C102.653 229.182 102.815 228.985 103.05 228.834C103.284 228.683 103.548 228.607 103.842 228.607C103.898 228.607 103.967 228.608 104.05 228.61C104.133 228.612 104.196 228.616 104.239 228.62V229.387C104.213 229.38 104.154 229.371 104.063 229.358C103.973 229.343 103.879 229.336 103.778 229.336C103.54 229.336 103.327 229.386 103.139 229.486C102.954 229.584 102.807 229.72 102.698 229.895C102.592 230.068 102.538 230.265 102.538 230.486V233.593H101.784ZM106.978 233.695C106.534 233.695 106.146 233.59 105.811 233.379C105.479 233.168 105.219 232.873 105.031 232.493C104.846 232.114 104.753 231.671 104.753 231.164C104.753 230.652 104.846 230.206 105.031 229.825C105.219 229.443 105.479 229.147 105.811 228.936C106.146 228.725 106.534 228.62 106.978 228.62C107.421 228.62 107.809 228.725 108.141 228.936C108.475 229.147 108.735 229.443 108.921 229.825C109.108 230.206 109.202 230.652 109.202 231.164C109.202 231.671 109.108 232.114 108.921 232.493C108.735 232.873 108.475 233.168 108.141 233.379C107.809 233.59 107.421 233.695 106.978 233.695ZM106.978 233.017C107.314 233.017 107.591 232.931 107.809 232.759C108.026 232.586 108.187 232.359 108.291 232.078C108.396 231.797 108.448 231.492 108.448 231.164C108.448 230.836 108.396 230.53 108.291 230.247C108.187 229.963 108.026 229.734 107.809 229.559C107.591 229.385 107.314 229.297 106.978 229.297C106.641 229.297 106.364 229.385 106.147 229.559C105.929 229.734 105.768 229.963 105.664 230.247C105.56 230.53 105.507 230.836 105.507 231.164C105.507 231.492 105.56 231.797 105.664 232.078C105.768 232.359 105.929 232.586 106.147 232.759C106.364 232.931 106.641 233.017 106.978 233.017ZM114.192 228.684L112.377 233.593H111.609L109.794 228.684H110.612L111.967 232.596H112.019L113.374 228.684H114.192ZM117.07 233.695C116.597 233.695 116.189 233.591 115.846 233.382C115.505 233.171 115.242 232.877 115.056 232.5C114.873 232.12 114.782 231.679 114.782 231.177C114.782 230.674 114.873 230.231 115.056 229.847C115.242 229.461 115.5 229.161 115.83 228.946C116.162 228.728 116.55 228.62 116.993 228.62C117.249 228.62 117.501 228.662 117.751 228.748C118 228.833 118.227 228.971 118.431 229.163C118.636 229.353 118.799 229.604 118.92 229.917C119.042 230.231 119.103 230.616 119.103 231.074V231.394H115.318V230.742H118.335C118.335 230.465 118.28 230.218 118.169 230C118.061 229.783 117.905 229.612 117.703 229.486C117.502 229.36 117.266 229.297 116.993 229.297C116.693 229.297 116.433 229.372 116.213 229.521C115.996 229.668 115.829 229.86 115.712 230.096C115.594 230.333 115.536 230.586 115.536 230.857V231.292C115.536 231.662 115.6 231.977 115.728 232.234C115.858 232.49 116.038 232.685 116.268 232.819C116.498 232.951 116.765 233.017 117.07 233.017C117.268 233.017 117.447 232.99 117.607 232.934C117.769 232.877 117.908 232.792 118.025 232.679C118.143 232.564 118.233 232.421 118.297 232.25L119.026 232.455C118.949 232.702 118.82 232.919 118.639 233.107C118.458 233.292 118.234 233.437 117.968 233.542C117.702 233.644 117.402 233.695 117.07 233.695ZM122.104 233.695C121.695 233.695 121.333 233.592 121.02 233.385C120.707 233.176 120.462 232.882 120.285 232.503C120.108 232.122 120.02 231.671 120.02 231.151C120.02 230.635 120.108 230.188 120.285 229.809C120.462 229.429 120.708 229.136 121.023 228.93C121.339 228.723 121.703 228.62 122.116 228.62C122.436 228.62 122.688 228.673 122.874 228.78C123.061 228.884 123.204 229.003 123.302 229.138C123.402 229.27 123.48 229.378 123.535 229.464H123.599V227.047H124.354V233.593H123.625V232.839H123.535C123.48 232.928 123.401 233.041 123.299 233.177C123.197 233.312 123.051 233.432 122.861 233.538C122.671 233.643 122.419 233.695 122.104 233.695ZM122.206 233.017C122.508 233.017 122.764 232.939 122.973 232.781C123.182 232.621 123.34 232.401 123.449 232.119C123.558 231.836 123.612 231.509 123.612 231.138C123.612 230.772 123.559 230.451 123.452 230.176C123.346 229.899 123.188 229.684 122.979 229.531C122.771 229.375 122.513 229.297 122.206 229.297C121.886 229.297 121.62 229.379 121.407 229.543C121.196 229.705 121.037 229.926 120.931 230.205C120.826 230.482 120.774 230.793 120.774 231.138C120.774 231.488 120.827 231.805 120.934 232.091C121.043 232.374 121.202 232.6 121.413 232.768C121.626 232.934 121.891 233.017 122.206 233.017Z" fill="black" fill-opacity="0.45"/>
<rect x="22.9277" y="246.788" width="28.066" height="13.5491" rx="6.77456" fill="#00509E"/>
<path d="M65.0178 249.307V255.853H63.634V250.621H63.5956L62.0967 251.56V250.333L63.7171 249.307H65.0178ZM68.9641 255.942C68.5124 255.942 68.1097 255.859 67.756 255.693C67.4045 255.527 67.1254 255.297 66.9187 255.006C66.712 254.714 66.6044 254.379 66.5959 254.002H67.9382C67.9531 254.256 68.0597 254.461 68.2578 254.619C68.456 254.777 68.6914 254.855 68.9641 254.855C69.1815 254.855 69.3732 254.807 69.5394 254.712C69.7077 254.614 69.8388 254.478 69.9325 254.306C70.0284 254.131 70.0763 253.931 70.0763 253.705C70.0763 253.475 70.0273 253.272 69.9293 253.098C69.8335 252.923 69.7003 252.786 69.5298 252.688C69.3594 252.59 69.1644 252.54 68.945 252.538C68.7532 252.538 68.5668 252.578 68.3857 252.657C68.2067 252.735 68.0671 252.843 67.967 252.979L66.7365 252.759L67.0465 249.307H71.0479V250.438H68.1875L68.0181 252.078H68.0565C68.1715 251.916 68.3452 251.782 68.5774 251.675C68.8097 251.569 69.0696 251.516 69.3572 251.516C69.7514 251.516 70.103 251.608 70.4119 251.794C70.7209 251.979 70.9648 252.234 71.1438 252.557C71.3228 252.879 71.4112 253.25 71.4091 253.67C71.4112 254.111 71.3089 254.503 71.1023 254.846C70.8977 255.187 70.6112 255.455 70.2425 255.651C69.8761 255.845 69.4499 255.942 68.9641 255.942ZM75.957 254.625V254.28C75.957 254.018 76.0124 253.777 76.1232 253.558C76.2362 253.336 76.3991 253.159 76.6122 253.027C76.8274 252.893 77.0895 252.826 77.3984 252.826C77.7116 252.826 77.9748 252.892 78.1879 253.024C78.4031 253.156 78.565 253.333 78.6737 253.555C78.7844 253.774 78.8398 254.016 78.8398 254.28V254.625C78.8398 254.887 78.7844 255.129 78.6737 255.351C78.5629 255.57 78.3999 255.746 78.1847 255.878C77.9695 256.012 77.7074 256.079 77.3984 256.079C77.0852 256.079 76.8221 256.012 76.609 255.878C76.396 255.746 76.234 255.57 76.1232 255.351C76.0124 255.129 75.957 254.887 75.957 254.625ZM76.8871 254.28V254.625C76.8871 254.777 76.9233 254.919 76.9957 255.054C77.0703 255.188 77.2045 255.255 77.3984 255.255C77.5923 255.255 77.7244 255.189 77.7947 255.057C77.8672 254.925 77.9034 254.781 77.9034 254.625V254.28C77.9034 254.125 77.8693 253.98 77.8011 253.845C77.733 253.711 77.5987 253.644 77.3984 253.644C77.2067 253.644 77.0735 253.711 76.9989 253.845C76.9244 253.98 76.8871 254.125 76.8871 254.28ZM72.598 250.88V250.534C72.598 250.27 72.6545 250.028 72.7674 249.809C72.8803 249.587 73.0433 249.41 73.2564 249.278C73.4716 249.146 73.7315 249.08 74.0362 249.08C74.3516 249.08 74.6158 249.146 74.8288 249.278C75.0419 249.41 75.2038 249.587 75.3146 249.809C75.4254 250.028 75.4808 250.27 75.4808 250.534V250.88C75.4808 251.144 75.4244 251.386 75.3114 251.605C75.2006 251.824 75.0376 252 74.8224 252.132C74.6094 252.262 74.3473 252.327 74.0362 252.327C73.7251 252.327 73.462 252.261 73.2468 252.129C73.0337 251.995 72.8718 251.819 72.761 251.602C72.6523 251.382 72.598 251.142 72.598 250.88ZM73.5344 250.534V250.88C73.5344 251.035 73.5707 251.179 73.6431 251.311C73.7177 251.443 73.8487 251.509 74.0362 251.509C74.2322 251.509 74.3654 251.443 74.4357 251.311C74.5082 251.179 74.5444 251.035 74.5444 250.88V250.534C74.5444 250.379 74.5103 250.234 74.4421 250.1C74.3739 249.965 74.2386 249.898 74.0362 249.898C73.8466 249.898 73.7156 249.967 73.6431 250.103C73.5707 250.239 73.5344 250.383 73.5344 250.534ZM73.0199 255.853L77.5199 249.307H78.3572L73.8572 255.853H73.0199Z" fill="black" fill-opacity="0.6"/>
<path d="M82.902 255.853V249.307H85.1136C85.6271 249.307 86.0469 249.4 86.3729 249.585C86.701 249.768 86.9439 250.017 87.1016 250.33C87.2592 250.643 87.3381 250.992 87.3381 251.378C87.3381 251.764 87.2592 252.114 87.1016 252.43C86.946 252.745 86.7053 252.996 86.3793 253.184C86.0533 253.369 85.6357 253.462 85.1264 253.462H83.5412V252.759H85.1009C85.4524 252.759 85.7347 252.698 85.9478 252.577C86.1609 252.455 86.3153 252.291 86.4112 252.084C86.5092 251.876 86.5582 251.64 86.5582 251.378C86.5582 251.116 86.5092 250.882 86.4112 250.675C86.3153 250.468 86.1598 250.306 85.9446 250.189C85.7294 250.07 85.4439 250.01 85.0881 250.01H83.6946V255.853H82.902ZM90.5181 255.955C90.0451 255.955 89.6371 255.85 89.294 255.642C88.9531 255.431 88.69 255.137 88.5046 254.759C88.3214 254.38 88.2298 253.939 88.2298 253.436C88.2298 252.934 88.3214 252.49 88.5046 252.107C88.69 251.721 88.9478 251.421 89.2781 251.206C89.6104 250.988 89.9982 250.88 90.4414 250.88C90.6971 250.88 90.9496 250.922 91.1989 251.007C91.4482 251.093 91.6751 251.231 91.8796 251.423C92.0842 251.612 92.2472 251.864 92.3686 252.177C92.4901 252.49 92.5508 252.876 92.5508 253.334V253.654H88.7667V253.002H91.7837C91.7837 252.725 91.7283 252.478 91.6175 252.26C91.5089 252.043 91.3533 251.871 91.1509 251.746C90.9506 251.62 90.7141 251.557 90.4414 251.557C90.141 251.557 89.881 251.632 89.6616 251.781C89.4442 251.928 89.277 252.12 89.1598 252.356C89.0426 252.593 88.984 252.846 88.984 253.117V253.551C88.984 253.922 89.0479 254.236 89.1758 254.494C89.3058 254.75 89.4858 254.945 89.7159 255.079C89.946 255.211 90.2134 255.277 90.5181 255.277C90.7163 255.277 90.8952 255.25 91.055 255.194C91.217 255.137 91.3565 255.051 91.4737 254.938C91.5909 254.823 91.6815 254.681 91.7454 254.51L92.4741 254.715C92.3974 254.962 92.2685 255.179 92.0874 255.367C91.9063 255.552 91.6825 255.697 91.4162 255.801C91.1499 255.904 90.8505 255.955 90.5181 255.955ZM94.4524 252.899V255.853H93.6982V250.943H94.4268V251.71H94.4908C94.6058 251.461 94.7805 251.261 95.0149 251.11C95.2493 250.956 95.5518 250.88 95.9226 250.88C96.255 250.88 96.5458 250.948 96.7951 251.084C97.0444 251.218 97.2383 251.423 97.3768 251.698C97.5153 251.97 97.5845 252.316 97.5845 252.733V255.853H96.8303V252.784C96.8303 252.399 96.7301 252.098 96.5298 251.883C96.3295 251.666 96.0547 251.557 95.7053 251.557C95.4645 251.557 95.2493 251.609 95.0597 251.714C94.8722 251.818 94.7241 251.97 94.6154 252.171C94.5067 252.371 94.4524 252.614 94.4524 252.899ZM100.816 255.955C100.407 255.955 100.046 255.851 99.733 255.645C99.4198 255.436 99.1748 255.142 98.998 254.763C98.8211 254.381 98.7327 253.931 98.7327 253.411C98.7327 252.895 98.8211 252.448 98.998 252.068C99.1748 251.689 99.4209 251.396 99.7362 251.19C100.052 250.983 100.416 250.88 100.829 250.88C101.149 250.88 101.401 250.933 101.587 251.039C101.774 251.144 101.917 251.263 102.015 251.397C102.115 251.529 102.193 251.638 102.248 251.723H102.312V249.307H103.066V255.853H102.338V255.098H102.248C102.193 255.188 102.114 255.301 102.012 255.437C101.91 255.571 101.764 255.692 101.574 255.798C101.384 255.903 101.132 255.955 100.816 255.955ZM100.919 255.277C101.221 255.277 101.477 255.198 101.686 255.041C101.895 254.881 102.053 254.66 102.162 254.379C102.271 254.096 102.325 253.769 102.325 253.398C102.325 253.032 102.272 252.711 102.165 252.436C102.059 252.159 101.901 251.944 101.692 251.79C101.483 251.635 101.226 251.557 100.919 251.557C100.599 251.557 100.333 251.639 100.12 251.803C99.9088 251.965 99.7501 252.186 99.6436 252.465C99.5392 252.742 99.4869 253.053 99.4869 253.398C99.4869 253.747 99.5402 254.065 99.6468 254.35C99.7554 254.634 99.9152 254.86 100.126 255.028C100.339 255.194 100.603 255.277 100.919 255.277ZM104.553 255.853V250.943H105.307V255.853H104.553ZM104.936 250.125C104.789 250.125 104.662 250.075 104.556 249.975C104.451 249.875 104.399 249.755 104.399 249.614C104.399 249.473 104.451 249.353 104.556 249.253C104.662 249.153 104.789 249.103 104.936 249.103C105.083 249.103 105.209 249.153 105.313 249.253C105.42 249.353 105.473 249.473 105.473 249.614C105.473 249.755 105.42 249.875 105.313 249.975C105.209 250.075 105.083 250.125 104.936 250.125ZM107.443 252.899V255.853H106.688V250.943H107.417V251.71H107.481C107.596 251.461 107.771 251.261 108.005 251.11C108.24 250.956 108.542 250.88 108.913 250.88C109.245 250.88 109.536 250.948 109.785 251.084C110.035 251.218 110.229 251.423 110.367 251.698C110.506 251.97 110.575 252.316 110.575 252.733V255.853H109.82V252.784C109.82 252.399 109.72 252.098 109.52 251.883C109.32 251.666 109.045 251.557 108.695 251.557C108.455 251.557 108.24 251.609 108.05 251.714C107.862 251.818 107.714 251.97 107.606 252.171C107.497 252.371 107.443 252.614 107.443 252.899ZM113.935 257.796C113.57 257.796 113.257 257.749 112.995 257.655C112.733 257.563 112.514 257.442 112.34 257.291C112.167 257.142 112.03 256.982 111.927 256.811L112.528 256.389C112.597 256.479 112.683 256.581 112.787 256.696C112.892 256.813 113.034 256.915 113.215 257C113.399 257.087 113.638 257.131 113.935 257.131C114.331 257.131 114.658 257.035 114.916 256.843C115.174 256.652 115.302 256.351 115.302 255.942V254.945H115.239C115.183 255.034 115.104 255.145 115.002 255.277C114.902 255.407 114.757 255.523 114.567 255.626C114.38 255.726 114.126 255.776 113.807 255.776C113.41 255.776 113.055 255.682 112.739 255.495C112.426 255.307 112.178 255.034 111.995 254.676C111.813 254.318 111.723 253.884 111.723 253.372C111.723 252.87 111.811 252.432 111.988 252.059C112.165 251.684 112.411 251.394 112.726 251.19C113.042 250.983 113.406 250.88 113.82 250.88C114.139 250.88 114.393 250.933 114.58 251.039C114.77 251.144 114.915 251.263 115.015 251.397C115.117 251.529 115.196 251.638 115.251 251.723H115.328V250.943H116.057V255.993C116.057 256.415 115.961 256.758 115.769 257.022C115.579 257.289 115.324 257.484 115.002 257.607C114.682 257.733 114.327 257.796 113.935 257.796ZM113.909 255.098C114.212 255.098 114.467 255.029 114.676 254.891C114.885 254.752 115.044 254.553 115.152 254.293C115.261 254.033 115.315 253.722 115.315 253.36C115.315 253.006 115.262 252.694 115.155 252.423C115.049 252.153 114.891 251.941 114.682 251.787C114.474 251.634 114.216 251.557 113.909 251.557C113.589 251.557 113.323 251.638 113.11 251.8C112.899 251.962 112.74 252.179 112.634 252.452C112.529 252.725 112.477 253.027 112.477 253.36C112.477 253.701 112.53 254.002 112.637 254.264C112.746 254.524 112.905 254.729 113.116 254.878C113.329 255.025 113.594 255.098 113.909 255.098Z" fill="black" fill-opacity="0.45"/>
<rect x="22.9277" y="269.047" width="28.066" height="13.5491" rx="6.77456" fill="#007ACC"/>
<path d="M65.0178 271.566V278.112H63.634V272.88H63.5956L62.0967 273.82V272.592L63.7171 271.566H65.0178ZM68.9641 278.201C68.5124 278.201 68.1097 278.118 67.756 277.952C67.4045 277.786 67.1254 277.557 66.9187 277.265C66.712 276.973 66.6044 276.638 66.5959 276.261H67.9382C67.9531 276.515 68.0597 276.72 68.2578 276.878C68.456 277.036 68.6914 277.115 68.9641 277.115C69.1815 277.115 69.3732 277.067 69.5394 276.971C69.7077 276.873 69.8388 276.738 69.9325 276.565C70.0284 276.39 70.0763 276.19 70.0763 275.964C70.0763 275.734 70.0273 275.532 69.9293 275.357C69.8335 275.182 69.7003 275.046 69.5298 274.948C69.3594 274.85 69.1644 274.8 68.945 274.798C68.7532 274.798 68.5668 274.837 68.3857 274.916C68.2067 274.995 68.0671 275.102 67.967 275.239L66.7365 275.018L67.0465 271.566H71.0479V272.698H68.1875L68.0181 274.337H68.0565C68.1715 274.175 68.3452 274.041 68.5774 273.935C68.8097 273.828 69.0696 273.775 69.3572 273.775C69.7514 273.775 70.103 273.867 70.4119 274.053C70.7209 274.238 70.9648 274.493 71.1438 274.817C71.3228 275.138 71.4112 275.509 71.4091 275.929C71.4112 276.37 71.3089 276.762 71.1023 277.105C70.8977 277.446 70.6112 277.714 70.2425 277.91C69.8761 278.104 69.4499 278.201 68.9641 278.201ZM75.957 276.885V276.539C75.957 276.277 76.0124 276.037 76.1232 275.817C76.2362 275.595 76.3991 275.419 76.6122 275.287C76.8274 275.152 77.0895 275.085 77.3984 275.085C77.7116 275.085 77.9748 275.151 78.1879 275.283C78.4031 275.415 78.565 275.592 78.6737 275.814C78.7844 276.033 78.8398 276.275 78.8398 276.539V276.885C78.8398 277.147 78.7844 277.388 78.6737 277.61C78.5629 277.83 78.3999 278.005 78.1847 278.137C77.9695 278.272 77.7074 278.339 77.3984 278.339C77.0852 278.339 76.8221 278.272 76.609 278.137C76.396 278.005 76.234 277.83 76.1232 277.61C76.0124 277.388 75.957 277.147 75.957 276.885ZM76.8871 276.539V276.885C76.8871 277.036 76.9233 277.179 76.9957 277.313C77.0703 277.447 77.2045 277.514 77.3984 277.514C77.5923 277.514 77.7244 277.448 77.7947 277.316C77.8672 277.184 77.9034 277.04 77.9034 276.885V276.539C77.9034 276.384 77.8693 276.239 77.8011 276.105C77.733 275.97 77.5987 275.903 77.3984 275.903C77.2067 275.903 77.0735 275.97 76.9989 276.105C76.9244 276.239 76.8871 276.384 76.8871 276.539ZM72.598 273.139V272.794C72.598 272.529 72.6545 272.288 72.7674 272.068C72.8803 271.847 73.0433 271.67 73.2564 271.538C73.4716 271.405 73.7315 271.339 74.0362 271.339C74.3516 271.339 74.6158 271.405 74.8288 271.538C75.0419 271.67 75.2038 271.847 75.3146 272.068C75.4254 272.288 75.4808 272.529 75.4808 272.794V273.139C75.4808 273.403 75.4244 273.645 75.3114 273.864C75.2006 274.084 75.0376 274.26 74.8224 274.392C74.6094 274.522 74.3473 274.587 74.0362 274.587C73.7251 274.587 73.462 274.521 73.2468 274.388C73.0337 274.254 72.8718 274.078 72.761 273.861C72.6523 273.642 72.598 273.401 72.598 273.139ZM73.5344 272.794V273.139C73.5344 273.294 73.5707 273.438 73.6431 273.57C73.7177 273.702 73.8487 273.768 74.0362 273.768C74.2322 273.768 74.3654 273.702 74.4357 273.57C74.5082 273.438 74.5444 273.294 74.5444 273.139V272.794C74.5444 272.638 74.5103 272.493 74.4421 272.359C74.3739 272.225 74.2386 272.158 74.0362 272.158C73.8466 272.158 73.7156 272.226 73.6431 272.362C73.5707 272.499 73.5344 272.642 73.5344 272.794ZM73.0199 278.112L77.5199 271.566H78.3572L73.8572 278.112H73.0199Z" fill="black" fill-opacity="0.6"/>
<path d="M83.1705 278.112H82.3395L84.7429 271.566H85.5611L87.9645 278.112H87.1335L85.1776 272.602H85.1264L83.1705 278.112ZM83.4773 275.555H86.8267V276.258H83.4773V275.555ZM88.8817 279.953V273.203H89.6104V273.983H89.6999C89.7553 273.897 89.832 273.789 89.93 273.657C90.0302 273.522 90.1729 273.403 90.3583 273.299C90.5458 273.192 90.7994 273.139 91.119 273.139C91.5323 273.139 91.8967 273.242 92.212 273.449C92.5273 273.655 92.7734 273.948 92.9503 274.328C93.1271 274.707 93.2156 275.154 93.2156 275.67C93.2156 276.19 93.1271 276.641 92.9503 277.022C92.7734 277.401 92.5284 277.695 92.2152 277.904C91.902 278.111 91.5408 278.214 91.1317 278.214C90.8164 278.214 90.5639 278.162 90.3743 278.057C90.1847 277.951 90.0387 277.831 89.9364 277.696C89.8342 277.56 89.7553 277.447 89.6999 277.358H89.636V279.953H88.8817ZM89.6232 275.657C89.6232 276.028 89.6776 276.355 89.7862 276.638C89.8949 276.92 90.0536 277.14 90.2624 277.3C90.4712 277.458 90.7269 277.537 91.0295 277.537C91.3448 277.537 91.608 277.453 91.8189 277.287C92.032 277.119 92.1918 276.893 92.2983 276.61C92.407 276.324 92.4613 276.007 92.4613 275.657C92.4613 275.312 92.408 275.001 92.3015 274.724C92.1971 274.445 92.0384 274.224 91.8253 274.062C91.6143 273.898 91.3491 273.816 91.0295 273.816C90.7227 273.816 90.4648 273.894 90.256 274.05C90.0472 274.203 89.8896 274.418 89.783 274.695C89.6765 274.97 89.6232 275.291 89.6232 275.657ZM94.3661 279.953V273.203H95.0948V273.983H95.1843C95.2397 273.897 95.3164 273.789 95.4144 273.657C95.5146 273.522 95.6573 273.403 95.8427 273.299C96.0302 273.192 96.2837 273.139 96.6033 273.139C97.0167 273.139 97.381 273.242 97.6964 273.449C98.0117 273.655 98.2578 273.948 98.4347 274.328C98.6115 274.707 98.6999 275.154 98.6999 275.67C98.6999 276.19 98.6115 276.641 98.4347 277.022C98.2578 277.401 98.0128 277.695 97.6996 277.904C97.3864 278.111 97.0252 278.214 96.6161 278.214C96.3008 278.214 96.0483 278.162 95.8587 278.057C95.669 277.951 95.5231 277.831 95.4208 277.696C95.3185 277.56 95.2397 277.447 95.1843 277.358H95.1204V279.953H94.3661ZM95.1076 275.657C95.1076 276.028 95.1619 276.355 95.2706 276.638C95.3793 276.92 95.538 277.14 95.7468 277.3C95.9556 277.458 96.2113 277.537 96.5138 277.537C96.8292 277.537 97.0923 277.453 97.3033 277.287C97.5163 277.119 97.6761 276.893 97.7827 276.61C97.8913 276.324 97.9457 276.007 97.9457 275.657C97.9457 275.312 97.8924 275.001 97.7859 274.724C97.6815 274.445 97.5227 274.224 97.3097 274.062C97.0987 273.898 96.8335 273.816 96.5138 273.816C96.207 273.816 95.9492 273.894 95.7404 274.05C95.5316 274.203 95.3739 274.418 95.2674 274.695C95.1609 274.97 95.1076 275.291 95.1076 275.657ZM99.8505 278.112V273.203H100.579V273.944H100.63C100.72 273.701 100.882 273.504 101.116 273.353C101.35 273.202 101.615 273.126 101.909 273.126C101.964 273.126 102.033 273.127 102.116 273.129C102.2 273.131 102.262 273.135 102.305 273.139V273.906C102.279 273.899 102.221 273.89 102.129 273.877C102.04 273.862 101.945 273.855 101.845 273.855C101.606 273.855 101.393 273.905 101.206 274.005C101.02 274.103 100.873 274.239 100.765 274.414C100.658 274.587 100.605 274.784 100.605 275.005V278.112H99.8505ZM105.044 278.214C104.601 278.214 104.212 278.109 103.877 277.898C103.545 277.687 103.285 277.392 103.098 277.012C102.912 276.633 102.82 276.19 102.82 275.683C102.82 275.171 102.912 274.725 103.098 274.344C103.285 273.962 103.545 273.666 103.877 273.455C104.212 273.244 104.601 273.139 105.044 273.139C105.487 273.139 105.875 273.244 106.207 273.455C106.542 273.666 106.802 273.962 106.987 274.344C107.175 274.725 107.268 275.171 107.268 275.683C107.268 276.19 107.175 276.633 106.987 277.012C106.802 277.392 106.542 277.687 106.207 277.898C105.875 278.109 105.487 278.214 105.044 278.214ZM105.044 277.537C105.381 277.537 105.658 277.45 105.875 277.278C106.092 277.105 106.253 276.878 106.358 276.597C106.462 276.316 106.514 276.011 106.514 275.683C106.514 275.355 106.462 275.049 106.358 274.766C106.253 274.482 106.092 274.253 105.875 274.078C105.658 273.904 105.381 273.816 105.044 273.816C104.707 273.816 104.43 273.904 104.213 274.078C103.996 274.253 103.835 274.482 103.73 274.766C103.626 275.049 103.574 275.355 103.574 275.683C103.574 276.011 103.626 276.316 103.73 276.597C103.835 276.878 103.996 277.105 104.213 277.278C104.43 277.45 104.707 277.537 105.044 277.537ZM112.258 273.203L110.443 278.112H109.676L107.861 273.203H108.679L110.034 277.115H110.085L111.44 273.203H112.258ZM115.136 278.214C114.663 278.214 114.255 278.11 113.912 277.901C113.571 277.69 113.308 277.396 113.123 277.019C112.94 276.64 112.848 276.198 112.848 275.696C112.848 275.193 112.94 274.75 113.123 274.366C113.308 273.98 113.566 273.68 113.896 273.465C114.229 273.247 114.616 273.139 115.06 273.139C115.315 273.139 115.568 273.181 115.817 273.267C116.066 273.352 116.293 273.49 116.498 273.682C116.702 273.872 116.865 274.123 116.987 274.436C117.108 274.75 117.169 275.135 117.169 275.593V275.913H113.385V275.261H116.402C116.402 274.984 116.347 274.737 116.236 274.519C116.127 274.302 115.972 274.131 115.769 274.005C115.569 273.879 115.332 273.816 115.06 273.816C114.759 273.816 114.499 273.891 114.28 274.04C114.062 274.187 113.895 274.379 113.778 274.615C113.661 274.852 113.602 275.105 113.602 275.376V275.811C113.602 276.181 113.666 276.496 113.794 276.754C113.924 277.009 114.104 277.204 114.334 277.338C114.564 277.47 114.832 277.537 115.136 277.537C115.334 277.537 115.513 277.509 115.673 277.453C115.835 277.396 115.975 277.311 116.092 277.198C116.209 277.083 116.3 276.94 116.364 276.769L117.092 276.974C117.016 277.221 116.887 277.439 116.706 277.626C116.524 277.811 116.301 277.956 116.034 278.061C115.768 278.163 115.469 278.214 115.136 278.214ZM120.17 278.214C119.761 278.214 119.4 278.111 119.087 277.904C118.773 277.695 118.528 277.401 118.351 277.022C118.175 276.641 118.086 276.19 118.086 275.67C118.086 275.154 118.175 274.707 118.351 274.328C118.528 273.948 118.774 273.655 119.09 273.449C119.405 273.242 119.769 273.139 120.183 273.139C120.502 273.139 120.755 273.192 120.94 273.299C121.128 273.403 121.271 273.522 121.369 273.657C121.469 273.789 121.546 273.897 121.602 273.983H121.666V271.566H122.42V278.112H121.691V277.358H121.602C121.546 277.447 121.468 277.56 121.365 277.696C121.263 277.831 121.117 277.951 120.927 278.057C120.738 278.162 120.485 278.214 120.17 278.214ZM120.272 277.537C120.575 277.537 120.831 277.458 121.039 277.3C121.248 277.14 121.407 276.92 121.516 276.638C121.624 276.355 121.679 276.028 121.679 275.657C121.679 275.291 121.625 274.97 121.519 274.695C121.412 274.418 121.255 274.203 121.046 274.05C120.837 273.894 120.579 273.816 120.272 273.816C119.953 273.816 119.686 273.898 119.473 274.062C119.262 274.224 119.104 274.445 118.997 274.724C118.893 275.001 118.84 275.312 118.84 275.657C118.84 276.007 118.894 276.324 119 276.61C119.109 276.893 119.269 277.119 119.48 277.287C119.693 277.453 119.957 277.537 120.272 277.537Z" fill="black" fill-opacity="0.45"/>
<rect x="22.9277" y="291.307" width="28.066" height="13.5491" rx="6.77456" fill="#66A3FF"/>
<path d="M65.0178 294.825V301.371H63.634V296.139H63.5956L62.0967 297.078V295.851L63.7171 294.825H65.0178ZM69.1399 301.514C68.5902 301.512 68.1172 301.377 67.7209 301.109C67.3267 300.84 67.0231 300.451 66.81 299.942C66.5991 299.433 66.4947 298.82 66.4968 298.104C66.4968 297.39 66.6023 296.782 66.8132 296.279C67.0263 295.777 67.3299 295.394 67.7241 295.132C68.1204 294.868 68.5923 294.736 69.1399 294.736C69.6875 294.736 70.1584 294.868 70.5526 295.132C70.9489 295.396 71.2536 295.78 71.4666 296.283C71.6797 296.783 71.7852 297.39 71.783 298.104C71.783 298.822 71.6765 299.436 71.4634 299.945C71.2525 300.454 70.9499 300.843 70.5558 301.112C70.1616 301.38 69.6896 301.514 69.1399 301.514ZM69.1399 300.367C69.5149 300.367 69.8143 300.178 70.038 299.801C70.2617 299.424 70.3725 298.859 70.3704 298.104C70.3704 297.608 70.3192 297.194 70.217 296.864C70.1168 296.534 69.9741 296.286 69.7887 296.12C69.6055 295.953 69.3892 295.87 69.1399 295.87C68.767 295.87 68.4688 296.057 68.245 296.43C68.0213 296.802 67.9084 297.361 67.9062 298.104C67.9062 298.607 67.9563 299.027 68.0565 299.364C68.1587 299.698 68.3026 299.949 68.4879 300.118C68.6733 300.284 68.8906 300.367 69.1399 300.367ZM76.3525 300.143V299.798C76.3525 299.536 76.4079 299.295 76.5187 299.076C76.6317 298.854 76.7947 298.677 77.0077 298.545C77.2229 298.411 77.485 298.344 77.7939 298.344C78.1072 298.344 78.3703 298.41 78.5834 298.542C78.7986 298.674 78.9605 298.851 79.0692 299.073C79.18 299.292 79.2354 299.534 79.2354 299.798V300.143C79.2354 300.405 79.18 300.647 79.0692 300.869C78.9584 301.088 78.7954 301.264 78.5802 301.396C78.365 301.53 78.1029 301.598 77.7939 301.598C77.4807 301.598 77.2176 301.53 77.0045 301.396C76.7915 301.264 76.6295 301.088 76.5187 300.869C76.4079 300.647 76.3525 300.405 76.3525 300.143ZM77.2826 299.798V300.143C77.2826 300.295 77.3188 300.437 77.3912 300.572C77.4658 300.706 77.6001 300.773 77.7939 300.773C77.9878 300.773 78.1199 300.707 78.1903 300.575C78.2627 300.443 78.2989 300.299 78.2989 300.143V299.798C78.2989 299.643 78.2648 299.498 78.1966 299.364C78.1285 299.229 77.9942 299.162 77.7939 299.162C77.6022 299.162 77.469 299.229 77.3944 299.364C77.3199 299.498 77.2826 299.643 77.2826 299.798ZM72.9935 296.398V296.052C72.9935 295.788 73.05 295.546 73.1629 295.327C73.2758 295.105 73.4388 294.928 73.6519 294.796C73.8671 294.664 74.127 294.598 74.4317 294.598C74.7471 294.598 75.0113 294.664 75.2243 294.796C75.4374 294.928 75.5993 295.105 75.7101 295.327C75.8209 295.546 75.8763 295.788 75.8763 296.052V296.398C75.8763 296.662 75.8199 296.904 75.7069 297.123C75.5961 297.343 75.4331 297.518 75.218 297.65C75.0049 297.78 74.7428 297.845 74.4317 297.845C74.1206 297.845 73.8575 297.779 73.6423 297.647C73.4292 297.513 73.2673 297.337 73.1565 297.12C73.0479 296.9 72.9935 296.66 72.9935 296.398ZM73.93 296.052V296.398C73.93 296.553 73.9662 296.697 74.0386 296.829C74.1132 296.961 74.2442 297.027 74.4317 297.027C74.6278 297.027 74.7609 296.961 74.8312 296.829C74.9037 296.697 74.9399 296.553 74.9399 296.398V296.052C74.9399 295.897 74.9058 295.752 74.8376 295.618C74.7694 295.484 74.6341 295.416 74.4317 295.416C74.2421 295.416 74.1111 295.485 74.0386 295.621C73.9662 295.757 73.93 295.901 73.93 296.052ZM73.4154 301.371L77.9154 294.825H78.7528L74.2528 301.371H73.4154Z" fill="black" fill-opacity="0.6"/>
<path d="M83.2975 301.371V294.825H85.5091C86.0205 294.825 86.4403 294.913 86.7684 295.087C87.0965 295.26 87.3394 295.497 87.4971 295.8C87.6547 296.102 87.7336 296.447 87.7336 296.832C87.7336 297.218 87.6547 297.56 87.4971 297.858C87.3394 298.156 87.0976 298.391 86.7716 298.561C86.4456 298.73 86.029 298.814 85.5219 298.814H83.7322V298.098H85.4964C85.8458 298.098 86.127 298.047 86.3401 297.944C86.5553 297.842 86.7108 297.697 86.8067 297.51C86.9047 297.32 86.9537 297.094 86.9537 296.832C86.9537 296.57 86.9047 296.341 86.8067 296.145C86.7087 295.949 86.5521 295.798 86.3369 295.691C86.1217 295.583 85.8373 295.528 85.4836 295.528H84.0901V301.371H83.2975ZM86.3785 298.43L87.9893 301.371H87.0688L85.4836 298.43H86.3785ZM90.9576 301.473C90.4846 301.473 90.0765 301.368 89.7335 301.16C89.3926 300.949 89.1294 300.655 88.9441 300.278C88.7608 299.898 88.6692 299.457 88.6692 298.954C88.6692 298.452 88.7608 298.008 88.9441 297.625C89.1294 297.239 89.3873 296.939 89.7175 296.724C90.0499 296.506 90.4377 296.398 90.8809 296.398C91.1365 296.398 91.389 296.44 91.6383 296.525C91.8876 296.611 92.1145 296.749 92.3191 296.941C92.5236 297.131 92.6866 297.382 92.8081 297.695C92.9295 298.008 92.9902 298.394 92.9902 298.852V299.172H89.2061V298.52H92.2232C92.2232 298.243 92.1678 297.996 92.057 297.778C91.9483 297.561 91.7928 297.389 91.5904 297.264C91.3901 297.138 91.1536 297.075 90.8809 297.075C90.5804 297.075 90.3205 297.15 90.101 297.299C89.8837 297.446 89.7164 297.638 89.5993 297.874C89.4821 298.111 89.4235 298.364 89.4235 298.635V299.069C89.4235 299.44 89.4874 299.754 89.6152 300.012C89.7452 300.268 89.9252 300.463 90.1554 300.597C90.3855 300.729 90.6529 300.795 90.9576 300.795C91.1557 300.795 91.3347 300.768 91.4945 300.712C91.6564 300.655 91.796 300.569 91.9132 300.457C92.0304 300.341 92.1209 300.199 92.1848 300.028L92.9135 300.233C92.8368 300.48 92.7079 300.697 92.5268 300.885C92.3457 301.07 92.122 301.215 91.8556 301.319C91.5893 301.422 91.29 301.473 90.9576 301.473ZM94.1376 296.462H94.8919V301.729C94.8919 302.031 94.8397 302.293 94.7353 302.515C94.633 302.736 94.4775 302.908 94.2686 303.029C94.062 303.151 93.801 303.212 93.4856 303.212C93.46 303.212 93.4345 303.212 93.4089 303.212C93.3833 303.212 93.3578 303.212 93.3322 303.212V302.508C93.3578 302.508 93.3812 302.508 93.4025 302.508C93.4238 302.508 93.4473 302.508 93.4728 302.508C93.7029 302.508 93.8713 302.44 93.9778 302.304C94.0843 302.17 94.1376 301.978 94.1376 301.729V296.462ZM94.5083 295.643C94.3613 295.643 94.2346 295.593 94.128 295.493C94.0236 295.393 93.9714 295.273 93.9714 295.132C93.9714 294.991 94.0236 294.871 94.128 294.771C94.2346 294.671 94.3613 294.621 94.5083 294.621C94.6554 294.621 94.7811 294.671 94.8855 294.771C94.992 294.871 95.0453 294.991 95.0453 295.132C95.0453 295.273 94.992 295.393 94.8855 295.493C94.7811 295.593 94.6554 295.643 94.5083 295.643ZM98.3316 301.473C97.8586 301.473 97.4506 301.368 97.1075 301.16C96.7666 300.949 96.5035 300.655 96.3181 300.278C96.1349 299.898 96.0432 299.457 96.0432 298.954C96.0432 298.452 96.1349 298.008 96.3181 297.625C96.5035 297.239 96.7613 296.939 97.0915 296.724C97.4239 296.506 97.8117 296.398 98.2549 296.398C98.5106 296.398 98.7631 296.44 99.0123 296.525C99.2616 296.611 99.4885 296.749 99.6931 296.941C99.8976 297.131 100.061 297.382 100.182 297.695C100.304 298.008 100.364 298.394 100.364 298.852V299.172H96.5802V298.52H99.5972C99.5972 298.243 99.5418 297.996 99.431 297.778C99.3224 297.561 99.1668 297.389 98.9644 297.264C98.7641 297.138 98.5276 297.075 98.2549 297.075C97.9545 297.075 97.6945 297.15 97.4751 297.299C97.2577 297.446 97.0905 297.638 96.9733 297.874C96.8561 298.111 96.7975 298.364 96.7975 298.635V299.069C96.7975 299.44 96.8614 299.754 96.9893 300.012C97.1192 300.268 97.2993 300.463 97.5294 300.597C97.7595 300.729 98.0269 300.795 98.3316 300.795C98.5297 300.795 98.7087 300.768 98.8685 300.712C99.0305 300.655 99.17 300.569 99.2872 300.457C99.4044 300.341 99.4949 300.199 99.5589 300.028L100.288 300.233C100.211 300.48 100.082 300.697 99.9008 300.885C99.7197 301.07 99.496 301.215 99.2297 301.319C98.9633 301.422 98.664 301.473 98.3316 301.473ZM103.506 301.473C103.046 301.473 102.649 301.364 102.317 301.147C101.985 300.93 101.729 300.63 101.55 300.249C101.371 299.867 101.282 299.432 101.282 298.942C101.282 298.443 101.373 298.003 101.556 297.622C101.742 297.238 102 296.939 102.33 296.724C102.662 296.506 103.05 296.398 103.493 296.398C103.838 296.398 104.149 296.462 104.426 296.589C104.703 296.717 104.93 296.896 105.107 297.126C105.284 297.356 105.394 297.625 105.436 297.932H104.682C104.625 297.708 104.497 297.51 104.299 297.337C104.103 297.163 103.838 297.075 103.506 297.075C103.212 297.075 102.954 297.152 102.733 297.305C102.513 297.457 102.342 297.671 102.218 297.948C102.097 298.223 102.036 298.545 102.036 298.916C102.036 299.295 102.095 299.626 102.215 299.907C102.336 300.188 102.507 300.406 102.726 300.562C102.948 300.718 103.208 300.795 103.506 300.795C103.702 300.795 103.88 300.761 104.04 300.693C104.199 300.625 104.335 300.527 104.446 300.399C104.556 300.271 104.635 300.118 104.682 299.939H105.436C105.394 300.229 105.288 300.49 105.12 300.722C104.954 300.952 104.733 301.135 104.458 301.272C104.186 301.406 103.868 301.473 103.506 301.473ZM108.674 296.462V297.101H106.13V296.462H108.674ZM106.871 295.285H107.626V299.964C107.626 300.177 107.657 300.337 107.718 300.444C107.782 300.548 107.863 300.618 107.961 300.655C108.061 300.689 108.167 300.706 108.278 300.706C108.361 300.706 108.429 300.702 108.482 300.693C108.535 300.682 108.578 300.674 108.61 300.667L108.763 301.345C108.712 301.364 108.641 301.383 108.549 301.403C108.458 301.424 108.342 301.435 108.201 301.435C107.988 301.435 107.779 301.389 107.574 301.297C107.372 301.205 107.204 301.066 107.07 300.878C106.937 300.691 106.871 300.454 106.871 300.169V295.285ZM111.814 301.473C111.341 301.473 110.933 301.368 110.59 301.16C110.249 300.949 109.986 300.655 109.801 300.278C109.617 299.898 109.526 299.457 109.526 298.954C109.526 298.452 109.617 298.008 109.801 297.625C109.986 297.239 110.244 296.939 110.574 296.724C110.906 296.506 111.294 296.398 111.737 296.398C111.993 296.398 112.245 296.44 112.495 296.525C112.744 296.611 112.971 296.749 113.176 296.941C113.38 297.131 113.543 297.382 113.665 297.695C113.786 298.008 113.847 298.394 113.847 298.852V299.172H110.063V298.52H113.08C113.08 298.243 113.024 297.996 112.913 297.778C112.805 297.561 112.649 297.389 112.447 297.264C112.247 297.138 112.01 297.075 111.737 297.075C111.437 297.075 111.177 297.15 110.957 297.299C110.74 297.446 110.573 297.638 110.456 297.874C110.339 298.111 110.28 298.364 110.28 298.635V299.069C110.28 299.44 110.344 299.754 110.472 300.012C110.602 300.268 110.782 300.463 111.012 300.597C111.242 300.729 111.509 300.795 111.814 300.795C112.012 300.795 112.191 300.768 112.351 300.712C112.513 300.655 112.652 300.569 112.77 300.457C112.887 300.341 112.977 300.199 113.041 300.028L113.77 300.233C113.693 300.48 113.564 300.697 113.383 300.885C113.202 301.07 112.978 301.215 112.712 301.319C112.446 301.422 112.146 301.473 111.814 301.473ZM116.848 301.473C116.439 301.473 116.078 301.37 115.764 301.163C115.451 300.954 115.206 300.66 115.029 300.281C114.852 299.899 114.764 299.449 114.764 298.929C114.764 298.413 114.852 297.966 115.029 297.587C115.206 297.207 115.452 296.914 115.767 296.708C116.083 296.501 116.447 296.398 116.861 296.398C117.18 296.398 117.433 296.451 117.618 296.557C117.805 296.662 117.948 296.781 118.046 296.915C118.146 297.047 118.224 297.156 118.28 297.241H118.343V294.825H119.098V301.371H118.369V300.616H118.28C118.224 300.706 118.145 300.819 118.043 300.955C117.941 301.089 117.795 301.21 117.605 301.316C117.416 301.421 117.163 301.473 116.848 301.473ZM116.95 300.795C117.253 300.795 117.508 300.716 117.717 300.559C117.926 300.399 118.085 300.178 118.193 299.897C118.302 299.614 118.356 299.287 118.356 298.916C118.356 298.55 118.303 298.229 118.196 297.954C118.09 297.677 117.932 297.462 117.723 297.308C117.515 297.153 117.257 297.075 116.95 297.075C116.63 297.075 116.364 297.157 116.151 297.321C115.94 297.483 115.781 297.704 115.675 297.983C115.57 298.26 115.518 298.571 115.518 298.916C115.518 299.265 115.571 299.583 115.678 299.868C115.787 300.152 115.946 300.378 116.157 300.546C116.37 300.712 116.635 300.795 116.95 300.795Z" fill="black" fill-opacity="0.45"/>
<path d="M258.367 297.821V294.914L264.468 289.572C264.925 289.158 265.315 288.78 265.636 288.437C265.957 288.088 266.202 287.74 266.371 287.391C266.54 287.037 266.624 286.653 266.624 286.24C266.624 285.777 266.523 285.382 266.322 285.055C266.12 284.723 265.843 284.467 265.489 284.288C265.135 284.108 264.729 284.018 264.272 284.018C263.809 284.018 263.403 284.113 263.055 284.304C262.706 284.489 262.434 284.759 262.238 285.112C262.047 285.466 261.952 285.897 261.952 286.403H258.122C258.122 285.265 258.378 284.282 258.889 283.454C259.401 282.627 260.12 281.99 261.046 281.543C261.977 281.091 263.058 280.865 264.288 280.865C265.557 280.865 266.659 281.078 267.596 281.502C268.533 281.927 269.257 282.521 269.769 283.283C270.286 284.04 270.545 284.919 270.545 285.921C270.545 286.558 270.417 287.19 270.161 287.816C269.905 288.442 269.445 289.134 268.78 289.891C268.121 290.647 267.185 291.554 265.971 292.61L263.97 294.456V294.562H270.749V297.821H258.367ZM279.396 298.05C278.122 298.05 276.992 297.832 276.007 297.397C275.027 296.956 274.253 296.348 273.687 295.575C273.121 294.802 272.832 293.912 272.821 292.904H276.889C276.905 293.269 277.022 293.593 277.24 293.876C277.458 294.154 277.754 294.372 278.13 294.53C278.506 294.688 278.933 294.767 279.413 294.767C279.892 294.767 280.314 294.682 280.678 294.513C281.049 294.339 281.337 294.102 281.544 293.803C281.751 293.498 281.852 293.149 281.846 292.757C281.852 292.365 281.74 292.017 281.512 291.712C281.283 291.407 280.959 291.17 280.54 291.001C280.126 290.833 279.636 290.748 279.069 290.748H277.444V287.873H279.069C279.565 287.873 280.001 287.791 280.376 287.628C280.757 287.465 281.054 287.236 281.267 286.942C281.479 286.643 281.582 286.3 281.577 285.913C281.582 285.537 281.493 285.208 281.307 284.925C281.128 284.636 280.875 284.413 280.548 284.255C280.227 284.097 279.854 284.018 279.429 284.018C278.982 284.018 278.577 284.097 278.212 284.255C277.852 284.413 277.567 284.636 277.354 284.925C277.142 285.213 277.03 285.548 277.019 285.929H273.156C273.167 284.933 273.445 284.056 273.989 283.299C274.534 282.537 275.274 281.941 276.211 281.511C277.153 281.08 278.225 280.865 279.429 280.865C280.627 280.865 281.68 281.075 282.59 281.494C283.499 281.913 284.207 282.485 284.713 283.209C285.22 283.928 285.473 284.742 285.473 285.652C285.478 286.594 285.171 287.369 284.55 287.979C283.935 288.589 283.142 288.965 282.173 289.106V289.237C283.469 289.39 284.446 289.809 285.105 290.495C285.77 291.181 286.099 292.039 286.094 293.068C286.094 294.037 285.808 294.897 285.236 295.649C284.67 296.395 283.88 296.983 282.867 297.413C281.86 297.838 280.703 298.05 279.396 298.05ZM295.292 298.23C293.833 298.23 292.575 297.884 291.519 297.192C290.463 296.495 289.649 295.496 289.077 294.195C288.505 292.888 288.222 291.317 288.227 289.482C288.233 287.647 288.519 286.09 289.085 284.81C289.657 283.525 290.468 282.548 291.519 281.878C292.575 281.203 293.833 280.865 295.292 280.865C296.752 280.865 298.009 281.203 299.066 281.878C300.128 282.548 300.944 283.525 301.516 284.81C302.088 286.095 302.371 287.653 302.366 289.482C302.366 291.323 302.08 292.896 301.508 294.203C300.936 295.51 300.122 296.509 299.066 297.201C298.015 297.887 296.757 298.23 295.292 298.23ZM295.292 294.922C296.164 294.922 296.869 294.478 297.408 293.59C297.947 292.697 298.214 291.328 298.208 289.482C298.208 288.273 298.086 287.277 297.841 286.493C297.596 285.703 297.255 285.115 296.82 284.729C296.384 284.342 295.875 284.149 295.292 284.149C294.427 284.149 293.727 284.587 293.193 285.464C292.66 286.335 292.39 287.674 292.385 289.482C292.379 290.707 292.496 291.723 292.736 292.529C292.981 293.335 293.324 293.936 293.765 294.334C294.206 294.726 294.715 294.922 295.292 294.922Z" fill="black" fill-opacity="0.74"/>
<path d="M190.723 310V311.094H187.273V310H190.723ZM188.125 308.562H189.539V314.195C189.539 314.385 189.568 314.531 189.625 314.633C189.685 314.732 189.763 314.799 189.859 314.836C189.956 314.872 190.063 314.891 190.18 314.891C190.268 314.891 190.349 314.884 190.422 314.871C190.497 314.858 190.555 314.846 190.594 314.836L190.832 315.941C190.757 315.967 190.648 315.996 190.508 316.027C190.37 316.059 190.201 316.077 190 316.082C189.646 316.092 189.327 316.039 189.043 315.922C188.759 315.802 188.534 315.617 188.367 315.367C188.203 315.117 188.122 314.805 188.125 314.43V308.562ZM194.458 316.117C193.872 316.117 193.364 315.988 192.935 315.73C192.505 315.473 192.172 315.112 191.935 314.648C191.7 314.185 191.583 313.643 191.583 313.023C191.583 312.404 191.7 311.861 191.935 311.395C192.172 310.928 192.505 310.566 192.935 310.309C193.364 310.051 193.872 309.922 194.458 309.922C195.044 309.922 195.552 310.051 195.981 310.309C196.411 310.566 196.743 310.928 196.978 311.395C197.215 311.861 197.333 312.404 197.333 313.023C197.333 313.643 197.215 314.185 196.978 314.648C196.743 315.112 196.411 315.473 195.981 315.73C195.552 315.988 195.044 316.117 194.458 316.117ZM194.466 314.984C194.784 314.984 195.049 314.897 195.263 314.723C195.476 314.546 195.635 314.309 195.739 314.012C195.846 313.715 195.899 313.384 195.899 313.02C195.899 312.652 195.846 312.32 195.739 312.023C195.635 311.724 195.476 311.486 195.263 311.309C195.049 311.132 194.784 311.043 194.466 311.043C194.14 311.043 193.869 311.132 193.653 311.309C193.44 311.486 193.28 311.724 193.173 312.023C193.069 312.32 193.017 312.652 193.017 313.02C193.017 313.384 193.069 313.715 193.173 314.012C193.28 314.309 193.44 314.546 193.653 314.723C193.869 314.897 194.14 314.984 194.466 314.984ZM201.529 310V311.094H198.08V310H201.529ZM198.932 308.562H200.346V314.195C200.346 314.385 200.374 314.531 200.432 314.633C200.492 314.732 200.57 314.799 200.666 314.836C200.762 314.872 200.869 314.891 200.986 314.891C201.075 314.891 201.156 314.884 201.229 314.871C201.304 314.858 201.361 314.846 201.4 314.836L201.639 315.941C201.563 315.967 201.455 315.996 201.314 316.027C201.176 316.059 201.007 316.077 200.807 316.082C200.452 316.092 200.133 316.039 199.85 315.922C199.566 315.802 199.34 315.617 199.174 315.367C199.01 315.117 198.929 314.805 198.932 314.43V308.562ZM204.438 316.121C204.058 316.121 203.716 316.053 203.411 315.918C203.109 315.78 202.869 315.577 202.692 315.309C202.518 315.04 202.431 314.71 202.431 314.316C202.431 313.978 202.493 313.698 202.618 313.477C202.743 313.255 202.914 313.078 203.13 312.945C203.346 312.812 203.59 312.712 203.86 312.645C204.134 312.574 204.416 312.523 204.708 312.492C205.06 312.456 205.345 312.423 205.563 312.395C205.782 312.363 205.941 312.316 206.04 312.254C206.142 312.189 206.192 312.089 206.192 311.953V311.93C206.192 311.635 206.105 311.408 205.931 311.246C205.756 311.085 205.505 311.004 205.177 311.004C204.83 311.004 204.556 311.079 204.353 311.23C204.152 311.382 204.017 311.56 203.946 311.766L202.626 311.578C202.73 311.214 202.902 310.909 203.142 310.664C203.381 310.417 203.674 310.232 204.021 310.109C204.367 309.984 204.75 309.922 205.169 309.922C205.458 309.922 205.746 309.956 206.032 310.023C206.319 310.091 206.58 310.203 206.817 310.359C207.054 310.513 207.244 310.723 207.388 310.988C207.534 311.254 207.606 311.586 207.606 311.984V316H206.247V315.176H206.2C206.114 315.342 205.993 315.499 205.837 315.645C205.683 315.788 205.489 315.904 205.255 315.992C205.023 316.078 204.751 316.121 204.438 316.121ZM204.806 315.082C205.09 315.082 205.336 315.026 205.544 314.914C205.752 314.799 205.912 314.648 206.024 314.461C206.139 314.273 206.196 314.069 206.196 313.848V313.141C206.152 313.177 206.076 313.211 205.97 313.242C205.866 313.273 205.748 313.301 205.618 313.324C205.488 313.348 205.359 313.368 205.231 313.387C205.104 313.405 204.993 313.421 204.899 313.434C204.688 313.462 204.5 313.509 204.333 313.574C204.166 313.639 204.035 313.73 203.938 313.848C203.842 313.962 203.794 314.111 203.794 314.293C203.794 314.553 203.889 314.75 204.079 314.883C204.269 315.016 204.511 315.082 204.806 315.082ZM210.442 308V316H209.028V308H210.442ZM216.352 316.121C215.971 316.121 215.629 316.053 215.324 315.918C215.022 315.78 214.783 315.577 214.605 315.309C214.431 315.04 214.344 314.71 214.344 314.316C214.344 313.978 214.406 313.698 214.531 313.477C214.656 313.255 214.827 313.078 215.043 312.945C215.259 312.812 215.503 312.712 215.773 312.645C216.047 312.574 216.329 312.523 216.621 312.492C216.973 312.456 217.258 312.423 217.477 312.395C217.695 312.363 217.854 312.316 217.953 312.254C218.055 312.189 218.105 312.089 218.105 311.953V311.93C218.105 311.635 218.018 311.408 217.844 311.246C217.669 311.085 217.418 311.004 217.09 311.004C216.743 311.004 216.469 311.079 216.266 311.23C216.065 311.382 215.93 311.56 215.859 311.766L214.539 311.578C214.643 311.214 214.815 310.909 215.055 310.664C215.294 310.417 215.587 310.232 215.934 310.109C216.28 309.984 216.663 309.922 217.082 309.922C217.371 309.922 217.659 309.956 217.945 310.023C218.232 310.091 218.493 310.203 218.73 310.359C218.967 310.513 219.158 310.723 219.301 310.988C219.447 311.254 219.52 311.586 219.52 311.984V316H218.16V315.176H218.113C218.027 315.342 217.906 315.499 217.75 315.645C217.596 315.788 217.402 315.904 217.168 315.992C216.936 316.078 216.664 316.121 216.352 316.121ZM216.719 315.082C217.003 315.082 217.249 315.026 217.457 314.914C217.665 314.799 217.826 314.648 217.938 314.461C218.052 314.273 218.109 314.069 218.109 313.848V313.141C218.065 313.177 217.99 313.211 217.883 313.242C217.779 313.273 217.661 313.301 217.531 313.324C217.401 313.348 217.272 313.368 217.145 313.387C217.017 313.405 216.906 313.421 216.813 313.434C216.602 313.462 216.413 313.509 216.246 313.574C216.079 313.639 215.948 313.73 215.852 313.848C215.755 313.962 215.707 314.111 215.707 314.293C215.707 314.553 215.802 314.75 215.992 314.883C216.182 315.016 216.424 315.082 216.719 315.082ZM225.684 311.586L224.395 311.727C224.358 311.596 224.294 311.474 224.203 311.359C224.115 311.245 223.995 311.152 223.844 311.082C223.693 311.012 223.508 310.977 223.289 310.977C222.995 310.977 222.747 311.04 222.547 311.168C222.349 311.296 222.251 311.461 222.254 311.664C222.251 311.839 222.315 311.98 222.445 312.09C222.578 312.199 222.797 312.289 223.102 312.359L224.125 312.578C224.693 312.701 225.115 312.895 225.391 313.16C225.669 313.426 225.81 313.773 225.813 314.203C225.81 314.581 225.699 314.914 225.48 315.203C225.264 315.49 224.964 315.714 224.578 315.875C224.193 316.036 223.75 316.117 223.25 316.117C222.516 316.117 221.924 315.964 221.477 315.656C221.029 315.346 220.762 314.915 220.676 314.363L222.055 314.23C222.117 314.501 222.25 314.706 222.453 314.844C222.656 314.982 222.921 315.051 223.246 315.051C223.582 315.051 223.852 314.982 224.055 314.844C224.26 314.706 224.363 314.535 224.363 314.332C224.363 314.16 224.297 314.018 224.164 313.906C224.034 313.794 223.831 313.708 223.555 313.648L222.531 313.434C221.956 313.314 221.53 313.112 221.254 312.828C220.978 312.542 220.841 312.18 220.844 311.742C220.841 311.372 220.941 311.052 221.145 310.781C221.35 310.508 221.635 310.297 222 310.148C222.367 309.997 222.79 309.922 223.27 309.922C223.973 309.922 224.526 310.072 224.93 310.371C225.336 310.671 225.587 311.076 225.684 311.586ZM231.721 311.586L230.432 311.727C230.395 311.596 230.331 311.474 230.24 311.359C230.152 311.245 230.032 311.152 229.881 311.082C229.73 311.012 229.545 310.977 229.326 310.977C229.032 310.977 228.785 311.04 228.584 311.168C228.386 311.296 228.288 311.461 228.291 311.664C228.288 311.839 228.352 311.98 228.482 312.09C228.615 312.199 228.834 312.289 229.139 312.359L230.162 312.578C230.73 312.701 231.152 312.895 231.428 313.16C231.706 313.426 231.847 313.773 231.85 314.203C231.847 314.581 231.736 314.914 231.518 315.203C231.301 315.49 231.001 315.714 230.615 315.875C230.23 316.036 229.787 316.117 229.287 316.117C228.553 316.117 227.962 315.964 227.514 315.656C227.066 315.346 226.799 314.915 226.713 314.363L228.092 314.23C228.154 314.501 228.287 314.706 228.49 314.844C228.693 314.982 228.958 315.051 229.283 315.051C229.619 315.051 229.889 314.982 230.092 314.844C230.298 314.706 230.4 314.535 230.4 314.332C230.4 314.16 230.334 314.018 230.201 313.906C230.071 313.794 229.868 313.708 229.592 313.648L228.568 313.434C227.993 313.314 227.567 313.112 227.291 312.828C227.015 312.542 226.878 312.18 226.881 311.742C226.878 311.372 226.979 311.052 227.182 310.781C227.387 310.508 227.673 310.297 228.037 310.148C228.404 309.997 228.827 309.922 229.307 309.922C230.01 309.922 230.563 310.072 230.967 310.371C231.373 310.671 231.624 311.076 231.721 311.586ZM235.672 316.117C235.07 316.117 234.551 315.992 234.113 315.742C233.678 315.49 233.344 315.133 233.109 314.672C232.875 314.208 232.758 313.663 232.758 313.035C232.758 312.418 232.875 311.876 233.109 311.41C233.346 310.941 233.677 310.577 234.102 310.316C234.526 310.053 235.025 309.922 235.598 309.922C235.967 309.922 236.316 309.982 236.645 310.102C236.975 310.219 237.267 310.401 237.52 310.648C237.775 310.896 237.975 311.211 238.121 311.594C238.267 311.974 238.34 312.427 238.34 312.953V313.387H233.422V312.434H236.984C236.982 312.163 236.923 311.922 236.809 311.711C236.694 311.497 236.534 311.329 236.328 311.207C236.125 311.085 235.888 311.023 235.617 311.023C235.328 311.023 235.074 311.094 234.855 311.234C234.637 311.372 234.466 311.555 234.344 311.781C234.224 312.005 234.163 312.251 234.16 312.52V313.352C234.16 313.701 234.224 314 234.352 314.25C234.479 314.497 234.658 314.687 234.887 314.82C235.116 314.951 235.384 315.016 235.691 315.016C235.897 315.016 236.083 314.987 236.25 314.93C236.417 314.87 236.561 314.783 236.684 314.668C236.806 314.553 236.898 314.411 236.961 314.242L238.281 314.391C238.198 314.74 238.039 315.044 237.805 315.305C237.573 315.562 237.276 315.763 236.914 315.906C236.552 316.047 236.138 316.117 235.672 316.117ZM242.532 310V311.094H239.083V310H242.532ZM239.935 308.562H241.349V314.195C241.349 314.385 241.377 314.531 241.435 314.633C241.494 314.732 241.573 314.799 241.669 314.836C241.765 314.872 241.872 314.891 241.989 314.891C242.078 314.891 242.159 314.884 242.231 314.871C242.307 314.858 242.364 314.846 242.403 314.836L242.642 315.941C242.566 315.967 242.458 315.996 242.317 316.027C242.179 316.059 242.01 316.077 241.81 316.082C241.455 316.092 241.136 316.039 240.853 315.922C240.569 315.802 240.343 315.617 240.177 315.367C240.013 315.117 239.932 314.805 239.935 314.43V308.562ZM248.371 311.586L247.082 311.727C247.046 311.596 246.982 311.474 246.891 311.359C246.802 311.245 246.682 311.152 246.531 311.082C246.38 311.012 246.195 310.977 245.977 310.977C245.682 310.977 245.435 311.04 245.234 311.168C245.036 311.296 244.939 311.461 244.941 311.664C244.939 311.839 245.003 311.98 245.133 312.09C245.266 312.199 245.484 312.289 245.789 312.359L246.812 312.578C247.38 312.701 247.802 312.895 248.078 313.16C248.357 313.426 248.497 313.773 248.5 314.203C248.497 314.581 248.387 314.914 248.168 315.203C247.952 315.49 247.651 315.714 247.266 315.875C246.88 316.036 246.438 316.117 245.938 316.117C245.203 316.117 244.612 315.964 244.164 315.656C243.716 315.346 243.449 314.915 243.363 314.363L244.742 314.23C244.805 314.501 244.938 314.706 245.141 314.844C245.344 314.982 245.608 315.051 245.934 315.051C246.27 315.051 246.539 314.982 246.742 314.844C246.948 314.706 247.051 314.535 247.051 314.332C247.051 314.16 246.984 314.018 246.852 313.906C246.721 313.794 246.518 313.708 246.242 313.648L245.219 313.434C244.643 313.314 244.217 313.112 243.941 312.828C243.665 312.542 243.529 312.18 243.531 311.742C243.529 311.372 243.629 311.052 243.832 310.781C244.038 310.508 244.323 310.297 244.688 310.148C245.055 309.997 245.478 309.922 245.957 309.922C246.66 309.922 247.214 310.072 247.617 310.371C248.023 310.671 248.275 311.076 248.371 311.586ZM255.012 316.117C254.413 316.117 253.898 315.986 253.469 315.723C253.042 315.46 252.712 315.096 252.48 314.633C252.251 314.167 252.137 313.63 252.137 313.023C252.137 312.414 252.254 311.876 252.488 311.41C252.723 310.941 253.053 310.577 253.48 310.316C253.91 310.053 254.418 309.922 255.004 309.922C255.491 309.922 255.922 310.012 256.297 310.191C256.674 310.368 256.975 310.62 257.199 310.945C257.423 311.268 257.551 311.646 257.582 312.078H256.23C256.176 311.789 256.046 311.548 255.84 311.355C255.637 311.16 255.365 311.062 255.023 311.062C254.734 311.062 254.48 311.141 254.262 311.297C254.043 311.451 253.872 311.672 253.75 311.961C253.63 312.25 253.57 312.596 253.57 313C253.57 313.409 253.63 313.76 253.75 314.055C253.87 314.346 254.038 314.572 254.254 314.73C254.473 314.887 254.729 314.965 255.023 314.965C255.232 314.965 255.418 314.926 255.582 314.848C255.749 314.767 255.888 314.651 256 314.5C256.112 314.349 256.189 314.165 256.23 313.949H257.582C257.548 314.374 257.423 314.75 257.207 315.078C256.991 315.404 256.697 315.659 256.324 315.844C255.952 316.026 255.514 316.117 255.012 316.117ZM258.743 316V310H260.157V316H258.743ZM259.454 309.148C259.23 309.148 259.037 309.074 258.876 308.926C258.715 308.775 258.634 308.594 258.634 308.383C258.634 308.169 258.715 307.988 258.876 307.84C259.037 307.689 259.23 307.613 259.454 307.613C259.681 307.613 259.873 307.689 260.032 307.84C260.194 307.988 260.274 308.169 260.274 308.383C260.274 308.594 260.194 308.775 260.032 308.926C259.873 309.074 259.681 309.148 259.454 309.148ZM261.611 316V310H262.982V311H263.045C263.154 310.654 263.342 310.387 263.607 310.199C263.876 310.009 264.182 309.914 264.525 309.914C264.604 309.914 264.691 309.918 264.787 309.926C264.886 309.931 264.968 309.94 265.033 309.953V311.254C264.973 311.233 264.878 311.215 264.748 311.199C264.62 311.181 264.497 311.172 264.377 311.172C264.119 311.172 263.887 311.228 263.682 311.34C263.479 311.449 263.318 311.602 263.201 311.797C263.084 311.992 263.025 312.217 263.025 312.473V316H261.611ZM268.343 316.117C267.744 316.117 267.229 315.986 266.8 315.723C266.373 315.46 266.043 315.096 265.812 314.633C265.582 314.167 265.468 313.63 265.468 313.023C265.468 312.414 265.585 311.876 265.819 311.41C266.054 310.941 266.384 310.577 266.812 310.316C267.241 310.053 267.749 309.922 268.335 309.922C268.822 309.922 269.253 310.012 269.628 310.191C270.006 310.368 270.306 310.62 270.53 310.945C270.754 311.268 270.882 311.646 270.913 312.078H269.562C269.507 311.789 269.377 311.548 269.171 311.355C268.968 311.16 268.696 311.062 268.354 311.062C268.065 311.062 267.812 311.141 267.593 311.297C267.374 311.451 267.203 311.672 267.081 311.961C266.961 312.25 266.901 312.596 266.901 313C266.901 313.409 266.961 313.76 267.081 314.055C267.201 314.346 267.369 314.572 267.585 314.73C267.804 314.887 268.06 314.965 268.354 314.965C268.563 314.965 268.749 314.926 268.913 314.848C269.08 314.767 269.219 314.651 269.331 314.5C269.443 314.349 269.52 314.165 269.562 313.949H270.913C270.879 314.374 270.754 314.75 270.538 315.078C270.322 315.404 270.028 315.659 269.655 315.844C269.283 316.026 268.845 316.117 268.343 316.117ZM275.898 313.477V310H277.313V316H275.941V314.934H275.879C275.743 315.27 275.521 315.544 275.211 315.758C274.904 315.971 274.525 316.078 274.074 316.078C273.681 316.078 273.333 315.991 273.031 315.816C272.732 315.639 272.497 315.383 272.328 315.047C272.159 314.708 272.074 314.299 272.074 313.82V310H273.488V313.602C273.488 313.982 273.592 314.284 273.801 314.508C274.009 314.732 274.283 314.844 274.621 314.844C274.829 314.844 275.031 314.793 275.227 314.691C275.422 314.59 275.582 314.439 275.707 314.238C275.835 314.035 275.898 313.781 275.898 313.477ZM280.181 308V316H278.767V308H280.181ZM283.361 316.121C282.981 316.121 282.639 316.053 282.334 315.918C282.032 315.78 281.792 315.577 281.615 315.309C281.441 315.04 281.354 314.71 281.354 314.316C281.354 313.978 281.416 313.698 281.541 313.477C281.666 313.255 281.837 313.078 282.053 312.945C282.269 312.812 282.512 312.712 282.783 312.645C283.057 312.574 283.339 312.523 283.631 312.492C283.982 312.456 284.268 312.423 284.486 312.395C284.705 312.363 284.864 312.316 284.963 312.254C285.064 312.189 285.115 312.089 285.115 311.953V311.93C285.115 311.635 285.028 311.408 284.854 311.246C284.679 311.085 284.428 311.004 284.1 311.004C283.753 311.004 283.479 311.079 283.275 311.23C283.075 311.382 282.939 311.56 282.869 311.766L281.549 311.578C281.653 311.214 281.825 310.909 282.064 310.664C282.304 310.417 282.597 310.232 282.943 310.109C283.29 309.984 283.673 309.922 284.092 309.922C284.381 309.922 284.669 309.956 284.955 310.023C285.242 310.091 285.503 310.203 285.74 310.359C285.977 310.513 286.167 310.723 286.311 310.988C286.456 311.254 286.529 311.586 286.529 311.984V316H285.17V315.176H285.123C285.037 315.342 284.916 315.499 284.76 315.645C284.606 315.788 284.412 315.904 284.178 315.992C283.946 316.078 283.674 316.121 283.361 316.121ZM283.729 315.082C284.012 315.082 284.258 315.026 284.467 314.914C284.675 314.799 284.835 314.648 284.947 314.461C285.062 314.273 285.119 314.069 285.119 313.848V313.141C285.075 313.177 284.999 313.211 284.893 313.242C284.788 313.273 284.671 313.301 284.541 313.324C284.411 313.348 284.282 313.368 284.154 313.387C284.027 313.405 283.916 313.421 283.822 313.434C283.611 313.462 283.423 313.509 283.256 313.574C283.089 313.639 282.958 313.73 282.861 313.848C282.765 313.962 282.717 314.111 282.717 314.293C282.717 314.553 282.812 314.75 283.002 314.883C283.192 315.016 283.434 315.082 283.729 315.082ZM290.947 310V311.094H287.498V310H290.947ZM288.35 308.562H289.764V314.195C289.764 314.385 289.792 314.531 289.85 314.633C289.91 314.732 289.988 314.799 290.084 314.836C290.18 314.872 290.287 314.891 290.404 314.891C290.493 314.891 290.574 314.884 290.646 314.871C290.722 314.858 290.779 314.846 290.818 314.836L291.057 315.941C290.981 315.967 290.873 315.996 290.732 316.027C290.594 316.059 290.425 316.077 290.225 316.082C289.87 316.092 289.551 316.039 289.268 315.922C288.984 315.802 288.758 315.617 288.592 315.367C288.428 315.117 288.347 314.805 288.35 314.43V308.562ZM292.13 316V310H293.544V316H292.13ZM292.841 309.148C292.617 309.148 292.424 309.074 292.263 308.926C292.101 308.775 292.021 308.594 292.021 308.383C292.021 308.169 292.101 307.988 292.263 307.84C292.424 307.689 292.617 307.613 292.841 307.613C293.067 307.613 293.26 307.689 293.419 307.84C293.58 307.988 293.661 308.169 293.661 308.383C293.661 308.594 293.58 308.775 293.419 308.926C293.26 309.074 293.067 309.148 292.841 309.148ZM296.412 312.484V316H294.998V310H296.35V311.02H296.42C296.558 310.684 296.778 310.417 297.08 310.219C297.385 310.021 297.761 309.922 298.209 309.922C298.623 309.922 298.984 310.01 299.291 310.187C299.601 310.365 299.84 310.621 300.01 310.957C300.182 311.293 300.266 311.701 300.264 312.18V316H298.85V312.398C298.85 311.997 298.745 311.684 298.537 311.457C298.331 311.23 298.046 311.117 297.682 311.117C297.434 311.117 297.214 311.172 297.021 311.281C296.831 311.388 296.682 311.543 296.572 311.746C296.465 311.949 296.412 312.195 296.412 312.484ZM304.311 318.375C303.803 318.375 303.367 318.306 303.002 318.168C302.637 318.033 302.344 317.85 302.123 317.621C301.902 317.392 301.748 317.138 301.662 316.859L302.936 316.551C302.993 316.668 303.076 316.784 303.186 316.898C303.295 317.016 303.442 317.112 303.627 317.188C303.814 317.266 304.05 317.305 304.334 317.305C304.735 317.305 305.067 317.207 305.33 317.012C305.593 316.819 305.725 316.501 305.725 316.059V314.922H305.654C305.581 315.068 305.475 315.217 305.334 315.371C305.196 315.525 305.012 315.654 304.783 315.758C304.557 315.862 304.271 315.914 303.928 315.914C303.467 315.914 303.049 315.806 302.674 315.59C302.301 315.371 302.005 315.046 301.783 314.613C301.564 314.178 301.455 313.634 301.455 312.98C301.455 312.322 301.564 311.766 301.783 311.312C302.005 310.857 302.303 310.512 302.678 310.277C303.053 310.04 303.471 309.922 303.932 309.922C304.283 309.922 304.572 309.982 304.799 310.102C305.028 310.219 305.21 310.361 305.346 310.527C305.481 310.691 305.584 310.846 305.654 310.992H305.732V310H307.127V316.098C307.127 316.611 307.005 317.035 306.76 317.371C306.515 317.707 306.18 317.958 305.756 318.125C305.331 318.292 304.85 318.375 304.311 318.375ZM304.322 314.805C304.622 314.805 304.877 314.732 305.088 314.586C305.299 314.44 305.459 314.23 305.568 313.957C305.678 313.684 305.732 313.355 305.732 312.973C305.732 312.595 305.678 312.264 305.568 311.98C305.462 311.697 305.303 311.477 305.092 311.32C304.883 311.161 304.627 311.082 304.322 311.082C304.007 311.082 303.744 311.164 303.533 311.328C303.322 311.492 303.163 311.717 303.057 312.004C302.95 312.288 302.896 312.611 302.896 312.973C302.896 313.34 302.95 313.661 303.057 313.938C303.166 314.211 303.326 314.424 303.537 314.578C303.751 314.729 304.012 314.805 304.322 314.805Z" fill="black" fill-opacity="0.41"/>
<defs>
<filter id="filter0_d_84_8" x="115.402" y="48.6709" width="225.527" height="225.527" filterUnits="userSpaceOnUse" color-interpolation-filters="sRGB">
<feFlood flood-opacity="0" result="BackgroundImageFix"/>
<feColorMatrix in="SourceAlpha" type="matrix" values="0 0 0 0 0 0 0 0 0 0 0 0 0 0 0 0 0 0 127 0" result="hardAlpha"/>
<feOffset dx="3" dy="3"/>
<feGaussianBlur stdDeviation="7.75"/>
<feComposite in2="hardAlpha" operator="out"/>
<feColorMatrix type="matrix" values="0 0 0 0 0 0 0 0 0 0 0 0 0 0 0 0 0 0 0.25 0"/>
<feBlend mode="normal" in2="BackgroundImageFix" result="effect1_dropShadow_84_8"/>
<feBlend mode="normal" in="SourceGraphic" in2="effect1_dropShadow_84_8" result="shape"/>
</filter>
</defs>
</svg>
