<svg width="277" height="223" viewBox="0 0 277 223" fill="none" xmlns="http://www.w3.org/2000/svg">
<g clip-path="url(#clip0_84_126)">
<rect x="-0.337402" width="277.297" height="223.082" rx="21" fill="#001B35"/>
<path d="M34.2634 24.0078H36.8983V33.5106C36.8983 34.5523 36.6521 35.4685 36.1597 36.2592C35.672 37.0499 34.9854 37.6678 34.1 38.1129C33.2146 38.5532 32.18 38.7734 30.9963 38.7734C29.8079 38.7734 28.7709 38.5532 27.8855 38.1129C27.0001 37.6678 26.3136 37.0499 25.8259 36.2592C25.3382 35.4685 25.0943 34.5523 25.0943 33.5106V24.0078H27.7293V33.2904C27.7293 33.8965 27.8618 34.4363 28.127 34.9098C28.3969 35.3832 28.7757 35.7549 29.2634 36.0248C29.7511 36.29 30.3287 36.4225 30.9963 36.4225C31.6639 36.4225 32.2416 36.29 32.7293 36.0248C33.2217 35.7549 33.6005 35.3832 33.8656 34.9098C34.1308 34.4363 34.2634 33.8965 34.2634 33.2904V24.0078ZM42.2197 32.1612V38.5532H39.6487V27.6441H42.106V29.4978H42.2339C42.4848 28.887 42.8849 28.4017 43.4342 28.0419C43.9881 27.682 44.6723 27.5021 45.4867 27.5021C46.2396 27.5021 46.8953 27.6631 47.4541 27.985C48.0175 28.307 48.4531 28.7734 48.7609 29.3842C49.0734 29.995 49.2273 30.736 49.2225 31.6072V38.5532H46.6515V32.0049C46.6515 31.2758 46.4621 30.7052 46.0833 30.2933C45.7093 29.8813 45.1908 29.6754 44.5279 29.6754C44.0781 29.6754 43.678 29.7748 43.3276 29.9737C42.982 30.1678 42.7097 30.4495 42.5109 30.8188C42.3167 31.1882 42.2197 31.6356 42.2197 32.1612ZM51.8362 38.5532V27.6441H54.3291V29.4623H54.4427C54.6416 28.8326 54.9825 28.3473 55.4654 28.0063C55.9531 27.6607 56.5095 27.4879 57.1345 27.4879C57.2765 27.4879 57.4351 27.495 57.6103 27.5092C57.7902 27.5187 57.9394 27.5352 58.0578 27.5589V29.924C57.9488 29.8861 57.776 29.8529 57.5393 29.8245C57.3073 29.7914 57.0824 29.7748 56.8646 29.7748C56.3958 29.7748 55.9744 29.8766 55.6004 30.0802C55.231 30.2791 54.9399 30.5561 54.7268 30.9112C54.5137 31.2663 54.4072 31.6759 54.4072 32.1399V38.5532H51.8362ZM64.1462 38.7663C63.0524 38.7663 62.1078 38.539 61.3124 38.0845C60.5216 37.6252 59.9132 36.9765 59.4871 36.1384C59.0609 35.2956 58.8479 34.3037 58.8479 33.1626C58.8479 32.0404 59.0609 31.0556 59.4871 30.2081C59.918 29.3558 60.5193 28.6929 61.2911 28.2194C62.0628 27.7412 62.9696 27.5021 64.0112 27.5021C64.6836 27.5021 65.318 27.611 65.9146 27.8288C66.516 28.0419 67.0463 28.3733 67.5055 28.8231C67.9696 29.2729 68.3341 29.8458 68.5993 30.5419C68.8645 31.2331 68.997 32.057 68.997 33.0134V33.8018H60.0553V32.0688H66.5325C66.5278 31.5764 66.4213 31.1384 66.2129 30.7549C66.0046 30.3667 65.7134 30.0613 65.3394 29.8387C64.97 29.6162 64.5392 29.5049 64.0467 29.5049C63.5212 29.5049 63.0595 29.6328 62.6618 29.8884C62.2641 30.1394 61.9539 30.4708 61.7314 30.8828C61.5136 31.29 61.4023 31.7374 61.3976 32.2251V33.7379C61.3976 34.3724 61.5136 34.9169 61.7456 35.3714C61.9776 35.8212 62.302 36.1669 62.7186 36.4083C63.1353 36.6451 63.623 36.7634 64.1817 36.7634C64.5557 36.7634 64.8943 36.7114 65.1973 36.6072C65.5003 36.4983 65.7631 36.3397 65.9857 36.1313C66.2082 35.923 66.3763 35.665 66.4899 35.3572L68.8905 35.6271C68.739 36.2616 68.4502 36.8155 68.024 37.289C67.6026 37.7578 67.0628 38.1224 66.4047 38.3828C65.7466 38.6384 64.9937 38.7663 64.1462 38.7663ZM79.7943 30.5277L77.4505 30.7833C77.3842 30.5466 77.2682 30.3241 77.1025 30.1157C76.9415 29.9074 76.7237 29.7393 76.4491 29.6115C76.1745 29.4836 75.8383 29.4197 75.4406 29.4197C74.9055 29.4197 74.4557 29.5357 74.0911 29.7677C73.7313 29.9997 73.5537 30.3004 73.5585 30.6697C73.5537 30.9869 73.6697 31.245 73.9065 31.4438C74.1479 31.6427 74.5457 31.8061 75.0997 31.9339L76.9604 32.3316C77.9926 32.5542 78.7597 32.9069 79.2616 33.3899C79.7682 33.8728 80.0239 34.5049 80.0286 35.2862C80.0239 35.9727 79.8227 36.5788 79.4249 37.1044C79.0319 37.6252 78.4851 38.0324 77.7843 38.3259C77.0836 38.6195 76.2786 38.7663 75.3695 38.7663C74.0343 38.7663 72.9595 38.4869 72.1451 37.9282C71.3307 37.3648 70.8454 36.5812 70.6891 35.5774L73.1962 35.3359C73.3099 35.8283 73.5514 36.2 73.9207 36.4509C74.29 36.7019 74.7706 36.8274 75.3624 36.8274C75.9732 36.8274 76.4633 36.7019 76.8326 36.4509C77.2067 36.2 77.3937 35.8899 77.3937 35.5206C77.3937 35.2081 77.2729 34.95 77.0315 34.7464C76.7947 34.5428 76.4254 34.3866 75.9235 34.2777L74.0627 33.887C73.0163 33.6692 72.2422 33.3023 71.7403 32.7862C71.2384 32.2653 70.9898 31.6072 70.9945 30.8117C70.9898 30.1394 71.1721 29.557 71.5414 29.0646C71.9155 28.5674 72.4339 28.1839 73.0968 27.914C73.7644 27.6394 74.5338 27.5021 75.4051 27.5021C76.6835 27.5021 77.6896 27.7743 78.4235 28.3188C79.1622 28.8634 79.6191 29.5996 79.7943 30.5277ZM86.9072 38.7663C85.8418 38.7663 84.9185 38.5319 84.1373 38.0632C83.356 37.5944 82.75 36.9386 82.3191 36.0958C81.893 35.253 81.6799 34.2682 81.6799 33.1413C81.6799 32.0144 81.893 31.0272 82.3191 30.1796C82.75 29.3321 83.356 28.674 84.1373 28.2052C84.9185 27.7365 85.8418 27.5021 86.9072 27.5021C87.9725 27.5021 88.8958 27.7365 89.6771 28.2052C90.4583 28.674 91.062 29.3321 91.4881 30.1796C91.919 31.0272 92.1345 32.0144 92.1345 33.1413C92.1345 34.2682 91.919 35.253 91.4881 36.0958C91.062 36.9386 90.4583 37.5944 89.6771 38.0632C88.8958 38.5319 87.9725 38.7663 86.9072 38.7663ZM86.9214 36.7066C87.499 36.7066 87.982 36.548 88.3703 36.2308C88.7585 35.9088 89.0473 35.4779 89.2367 34.9382C89.4309 34.3984 89.5279 33.7971 89.5279 33.1342C89.5279 32.4666 89.4309 31.8629 89.2367 31.3231C89.0473 30.7786 88.7585 30.3454 88.3703 30.0234C87.982 29.7014 87.499 29.5404 86.9214 29.5404C86.3295 29.5404 85.8371 29.7014 85.4441 30.0234C85.0559 30.3454 84.7647 30.7786 84.5705 31.3231C84.3811 31.8629 84.2864 32.4666 84.2864 33.1342C84.2864 33.7971 84.3811 34.3984 84.5705 34.9382C84.7647 35.4779 85.0559 35.9088 85.4441 36.2308C85.8371 36.548 86.3295 36.7066 86.9214 36.7066ZM96.8877 24.0078V38.5532H94.3166V24.0078H96.8877ZM109.276 27.6441L105.391 38.5532H102.55L98.665 27.6441H101.406L103.914 35.7478H104.027L106.541 27.6441H109.276ZM115.513 38.7663C114.42 38.7663 113.475 38.539 112.68 38.0845C111.889 37.6252 111.28 36.9765 110.854 36.1384C110.428 35.2956 110.215 34.3037 110.215 33.1626C110.215 32.0404 110.428 31.0556 110.854 30.2081C111.285 29.3558 111.886 28.6929 112.658 28.2194C113.43 27.7412 114.337 27.5021 115.378 27.5021C116.051 27.5021 116.685 27.611 117.282 27.8288C117.883 28.0419 118.413 28.3733 118.873 28.8231C119.337 29.2729 119.701 29.8458 119.966 30.5419C120.232 31.2331 120.364 32.057 120.364 33.0134V33.8018H111.422V32.0688H117.9C117.895 31.5764 117.788 31.1384 117.58 30.7549C117.372 30.3667 117.081 30.0613 116.707 29.8387C116.337 29.6162 115.906 29.5049 115.414 29.5049C114.888 29.5049 114.427 29.6328 114.029 29.8884C113.631 30.1394 113.321 30.4708 113.099 30.8828C112.881 31.29 112.77 31.7374 112.765 32.2251V33.7379C112.765 34.3724 112.881 34.9169 113.113 35.3714C113.345 35.8212 113.669 36.1669 114.086 36.4083C114.502 36.6451 114.99 36.7634 115.549 36.7634C115.923 36.7634 116.261 36.7114 116.564 36.6072C116.868 36.4983 117.13 36.3397 117.353 36.1313C117.575 35.923 117.743 35.665 117.857 35.3572L120.258 35.6271C120.106 36.2616 119.817 36.8155 119.391 37.289C118.97 37.7578 118.43 38.1224 117.772 38.3828C117.114 38.6384 116.361 38.7663 115.513 38.7663ZM126.588 38.745C125.731 38.745 124.964 38.5248 124.286 38.0845C123.609 37.6441 123.074 37.0049 122.681 36.1669C122.288 35.3288 122.092 34.3108 122.092 33.1129C122.092 31.9008 122.291 30.878 122.688 30.0447C123.091 29.2066 123.633 28.5745 124.315 28.1484C124.997 27.7175 125.757 27.5021 126.595 27.5021C127.234 27.5021 127.759 27.611 128.171 27.8288C128.583 28.0419 128.91 28.2999 129.152 28.6029C129.393 28.9012 129.58 29.183 129.713 29.4481H129.819V24.0078H132.397V38.5532H129.869V36.8345H129.713C129.58 37.0996 129.388 37.3813 129.137 37.6796C128.886 37.9732 128.555 38.2242 128.143 38.4325C127.731 38.6408 127.213 38.745 126.588 38.745ZM127.305 36.6356C127.849 36.6356 128.313 36.4888 128.697 36.1953C129.08 35.897 129.372 35.4827 129.571 34.9524C129.769 34.4221 129.869 33.8042 129.869 33.0987C129.869 32.3932 129.769 31.78 129.571 31.2592C129.376 30.7384 129.088 30.3335 128.704 30.0447C128.325 29.7559 127.859 29.6115 127.305 29.6115C126.732 29.6115 126.254 29.7606 125.87 30.0589C125.487 30.3572 125.198 30.7691 125.004 31.2947C124.81 31.8203 124.713 32.4216 124.713 33.0987C124.713 33.7805 124.81 34.3889 125.004 34.924C125.203 35.4543 125.494 35.8733 125.877 36.1811C126.266 36.4841 126.741 36.6356 127.305 36.6356Z" fill="white" fill-opacity="0.69"/>
<path d="M26.0176 84.3276V79.8958L36.3727 70.3078C37.2534 69.4555 37.9921 68.6884 38.5886 68.0066C39.1947 67.3248 39.654 66.6572 39.9665 66.0038C40.279 65.3409 40.4352 64.6259 40.4352 63.8589C40.4352 63.0066 40.2411 62.2727 39.8529 61.6572C39.4646 61.0322 38.9343 60.554 38.2619 60.2225C37.5896 59.8816 36.8273 59.7112 35.975 59.7112C35.0849 59.7112 34.3083 59.8911 33.6455 60.2509C32.9826 60.6108 32.4712 61.1269 32.1114 61.7992C31.7515 62.4716 31.5716 63.2718 31.5716 64.1998H25.7335C25.7335 62.2964 26.1644 60.6439 27.0261 59.2424C27.8879 57.8409 29.0953 56.7566 30.6483 55.9896C32.2013 55.2225 33.9911 54.839 36.0176 54.839C38.101 54.839 39.9144 55.2083 41.458 55.947C43.011 56.6761 44.2184 57.6894 45.0801 58.9867C45.9419 60.2841 46.3727 61.7708 46.3727 63.447C46.3727 64.5454 46.1549 65.6297 45.7193 66.6998C45.2932 67.7699 44.5309 68.9583 43.4324 70.2651C42.3339 71.5625 40.7856 73.1203 38.7875 74.9384L34.5404 79.1004V79.2992H46.7563V84.3276H26.0176Z" fill="white" fill-opacity="0.81"/>
<path opacity="0.2" fill-rule="evenodd" clip-rule="evenodd" d="M0.131924 171.533C9.28747 171.533 20.968 146.139 30.1236 146.139C39.2791 146.139 51.8256 158.963 60.9811 158.963C70.1367 158.963 82.6832 133.315 91.8387 133.315C100.994 133.315 113.541 171.787 122.696 171.787C131.852 171.787 144.398 184.61 153.554 184.61C162.709 184.61 175.256 171.787 184.412 171.787C193.567 171.787 206.113 184.61 215.269 184.61C224.425 184.61 236.971 210.258 246.126 210.258C255.282 210.258 267.828 158.963 276.984 158.963V191.086C276.984 191.086 284.07 207.972 281.404 212.86C278.737 217.749 273.405 223.081 273.405 223.081C211.635 223.081 252.072 235.027 111.204 227.525C64.2948 225.027 32.5476 222.637 27.6593 223.081C22.771 223.526 8.45311 226.774 2.32937 218.193C-4.64786 208.416 -0.74369 178.387 -0.733997 178.198C-0.711155 177.754 -1.19154 171.533 0.131924 171.533Z" fill="#66A3FF"/>
<g filter="url(#filter0_d_84_126)">
<path d="M0.551758 171.787C9.7073 171.787 22.2538 146.139 31.4093 146.139C40.5649 146.139 53.1114 158.963 62.2669 158.963C71.4224 158.963 83.9689 133.315 93.1245 133.315C102.28 133.315 114.826 171.787 123.982 171.787C133.138 171.787 145.684 184.61 154.84 184.61C163.995 184.61 176.542 171.787 185.697 171.787C194.853 171.787 207.399 184.61 216.555 184.61C225.71 184.61 238.257 210.258 247.412 210.258C256.568 210.258 269.114 158.963 278.27 158.963" stroke="#66A3FE" stroke-width="2" stroke-linejoin="round"/>
</g>
<g filter="url(#filter1_d_84_126)">
<ellipse cx="-1.13783" cy="172.025" rx="1.89439" ry="1.81092" fill="#66A3FE" stroke="#66A3FE"/>
<ellipse cx="30.7772" cy="145.792" rx="1.89439" ry="1.81092" fill="#66A3FE" stroke="#66A3FE"/>
<ellipse cx="61.4242" cy="159.123" rx="1.89439" ry="1.81092" fill="#66A3FE" stroke="#66A3FE"/>
<ellipse cx="92.9598" cy="133.349" rx="1.89439" ry="1.81092" fill="#66A3FE" stroke="#66A3FE"/>
<ellipse cx="123.607" cy="171.164" rx="1.89439" ry="1.81092" fill="#66A3FE" stroke="#66A3FE"/>
<ellipse cx="154.254" cy="183.996" rx="1.89439" ry="1.81092" fill="#66A3FE" stroke="#66A3FE"/>
<ellipse cx="184.901" cy="171.164" rx="1.89439" ry="1.81092" fill="#66A3FE" stroke="#66A3FE"/>
<ellipse cx="215.548" cy="183.996" rx="1.89439" ry="1.81092" fill="#66A3FE" stroke="#66A3FE"/>
<ellipse cx="247.084" cy="209.658" rx="1.89439" ry="1.81092" fill="#66A3FE" stroke="#66A3FE"/>
<ellipse cx="276.842" cy="159.222" rx="1.89439" ry="1.81092" fill="#66A3FE" stroke="#66A3FE"/>
</g>
</g>
<defs>
<filter id="filter0_d_84_126" x="-3.44824" y="132.315" width="285.718" height="86.9424" filterUnits="userSpaceOnUse" color-interpolation-filters="sRGB">
<feFlood flood-opacity="0" result="BackgroundImageFix"/>
<feColorMatrix in="SourceAlpha" type="matrix" values="0 0 0 0 0 0 0 0 0 0 0 0 0 0 0 0 0 0 127 0" result="hardAlpha"/>
<feOffset dy="4"/>
<feGaussianBlur stdDeviation="2"/>
<feComposite in2="hardAlpha" operator="out"/>
<feColorMatrix type="matrix" values="0 0 0 0 0 0 0 0 0 0 0 0 0 0 0 0 0 0 0.25 0"/>
<feBlend mode="normal" in2="BackgroundImageFix" result="effect1_dropShadow_84_126"/>
<feBlend mode="normal" in="SourceGraphic" in2="effect1_dropShadow_84_126" result="shape"/>
</filter>
<filter id="filter1_d_84_126" x="-6.53223" y="128.038" width="290.769" height="88.9307" filterUnits="userSpaceOnUse" color-interpolation-filters="sRGB">
<feFlood flood-opacity="0" result="BackgroundImageFix"/>
<feColorMatrix in="SourceAlpha" type="matrix" values="0 0 0 0 0 0 0 0 0 0 0 0 0 0 0 0 0 0 127 0" result="hardAlpha"/>
<feOffset dx="1" dy="1"/>
<feGaussianBlur stdDeviation="2"/>
<feComposite in2="hardAlpha" operator="out"/>
<feColorMatrix type="matrix" values="0 0 0 0 0 0 0 0 0 0 0 0 0 0 0 0 0 0 0.37 0"/>
<feBlend mode="normal" in2="BackgroundImageFix" result="effect1_dropShadow_84_126"/>
<feBlend mode="normal" in="SourceGraphic" in2="effect1_dropShadow_84_126" result="shape"/>
</filter>
<clipPath id="clip0_84_126">
<rect width="277" height="223" rx="21" fill="white"/>
</clipPath>
</defs>
</svg>
